<?xml version="1.0" encoding="utf-8" standalone="no"?>
<!DOCTYPE svg PUBLIC "-//W3C//DTD SVG 1.1//EN"
  "http://www.w3.org/Graphics/SVG/1.1/DTD/svg11.dtd">
<svg xmlns:xlink="http://www.w3.org/1999/xlink" width="714.35pt" height="384.30375pt" viewBox="0 0 714.35 384.30375" xmlns="http://www.w3.org/2000/svg" version="1.1">
 <metadata>
  <rdf:RDF xmlns:dc="http://purl.org/dc/elements/1.1/" xmlns:cc="http://creativecommons.org/ns#" xmlns:rdf="http://www.w3.org/1999/02/22-rdf-syntax-ns#">
   <cc:Work>
    <dc:type rdf:resource="http://purl.org/dc/dcmitype/StillImage"/>
    <dc:date>2024-03-04T08:31:40.674214</dc:date>
    <dc:format>image/svg+xml</dc:format>
    <dc:creator>
     <cc:Agent>
      <dc:title>Matplotlib v3.8.2, https://matplotlib.org/</dc:title>
     </cc:Agent>
    </dc:creator>
   </cc:Work>
  </rdf:RDF>
 </metadata>
 <defs>
  <style type="text/css">*{stroke-linejoin: round; stroke-linecap: butt}</style>
 </defs>
 <g id="figure_1">
  <g id="patch_1">
   <path d="M 0 384.30375 
L 714.35 384.30375 
L 714.35 0 
L 0 0 
z
" style="fill: #ffffff"/>
  </g>
  <g id="axes_1">
   <g id="patch_2">
    <path d="M 24.6 319.57625 
L 707.15 319.57625 
L 707.15 49.23625 
L 24.6 49.23625 
z
" style="fill: #eaeaf2"/>
   </g>
   <g id="matplotlib.axis_1">
    <g id="xtick_1">
     <g id="line2d_1"/>
     <g id="text_1">
      <!-- 20% -->
      <g style="fill: #262626" transform="translate(85.097532 330.323125) scale(0.1 -0.1)">
       <defs>
        <path id="LiberationSans-32" d="M 322 0 
L 322 397 
Q 481 763 711 1042 
Q 941 1322 1194 1548 
Q 1447 1775 1695 1969 
Q 1944 2163 2144 2356 
Q 2344 2550 2467 2762 
Q 2591 2975 2591 3244 
Q 2591 3431 2534 3573 
Q 2478 3716 2372 3812 
Q 2266 3909 2117 3957 
Q 1969 4006 1788 4006 
Q 1619 4006 1470 3959 
Q 1322 3913 1206 3819 
Q 1091 3725 1017 3586 
Q 944 3447 922 3263 
L 347 3316 
Q 375 3553 478 3762 
Q 581 3972 762 4130 
Q 944 4288 1198 4378 
Q 1453 4469 1788 4469 
Q 2116 4469 2372 4391 
Q 2628 4313 2804 4159 
Q 2981 4006 3075 3781 
Q 3169 3556 3169 3263 
Q 3169 3041 3089 2841 
Q 3009 2641 2876 2459 
Q 2744 2278 2569 2109 
Q 2394 1941 2203 1780 
Q 2013 1619 1819 1461 
Q 1625 1303 1454 1143 
Q 1284 984 1150 820 
Q 1016 656 941 478 
L 3238 478 
L 3238 0 
L 322 0 
z
" transform="scale(0.015625)"/>
        <path id="LiberationSans-30" d="M 3309 2203 
Q 3309 1569 3189 1136 
Q 3069 703 2861 436 
Q 2653 169 2372 53 
Q 2091 -63 1772 -63 
Q 1450 -63 1172 53 
Q 894 169 689 434 
Q 484 700 367 1133 
Q 250 1566 250 2203 
Q 250 2869 367 3305 
Q 484 3741 690 4000 
Q 897 4259 1178 4364 
Q 1459 4469 1791 4469 
Q 2106 4469 2382 4364 
Q 2659 4259 2865 4000 
Q 3072 3741 3190 3305 
Q 3309 2869 3309 2203 
z
M 2738 2203 
Q 2738 2728 2675 3076 
Q 2613 3425 2491 3633 
Q 2369 3841 2192 3927 
Q 2016 4013 1791 4013 
Q 1553 4013 1372 3925 
Q 1191 3838 1067 3630 
Q 944 3422 881 3073 
Q 819 2725 819 2203 
Q 819 1697 883 1350 
Q 947 1003 1070 792 
Q 1194 581 1372 489 
Q 1550 397 1778 397 
Q 2000 397 2178 489 
Q 2356 581 2479 792 
Q 2603 1003 2670 1350 
Q 2738 1697 2738 2203 
z
" transform="scale(0.015625)"/>
        <path id="LiberationSans-25" d="M 5463 1356 
Q 5463 966 5383 698 
Q 5303 431 5167 267 
Q 5031 103 4850 32 
Q 4669 -38 4463 -38 
Q 4256 -38 4076 32 
Q 3897 103 3764 265 
Q 3631 428 3554 695 
Q 3478 963 3478 1356 
Q 3478 1772 3553 2044 
Q 3628 2316 3762 2477 
Q 3897 2638 4080 2702 
Q 4263 2766 4475 2766 
Q 4681 2766 4861 2702 
Q 5041 2638 5173 2477 
Q 5306 2316 5384 2044 
Q 5463 1772 5463 1356 
z
M 1647 0 
L 1163 0 
L 4044 4403 
L 4534 4403 
L 1647 0 
z
M 1231 4441 
Q 1431 4441 1609 4377 
Q 1788 4313 1922 4153 
Q 2056 3994 2132 3725 
Q 2209 3456 2209 3047 
Q 2209 2653 2131 2384 
Q 2053 2116 1920 1948 
Q 1788 1781 1606 1709 
Q 1425 1638 1219 1638 
Q 1009 1638 828 1709 
Q 647 1781 514 1947 
Q 381 2113 304 2381 
Q 228 2650 228 3047 
Q 228 3456 304 3725 
Q 381 3994 515 4153 
Q 650 4313 834 4377 
Q 1019 4441 1231 4441 
z
M 5000 1356 
Q 5000 1666 4965 1870 
Q 4931 2075 4864 2197 
Q 4797 2319 4698 2369 
Q 4600 2419 4475 2419 
Q 4344 2419 4244 2367 
Q 4144 2316 4075 2194 
Q 4006 2072 3972 1867 
Q 3938 1663 3938 1356 
Q 3938 1059 3973 859 
Q 4009 659 4076 536 
Q 4144 413 4242 359 
Q 4341 306 4469 306 
Q 4591 306 4689 359 
Q 4788 413 4856 536 
Q 4925 659 4962 859 
Q 5000 1059 5000 1356 
z
M 1750 3047 
Q 1750 3353 1715 3556 
Q 1681 3759 1615 3881 
Q 1550 4003 1453 4053 
Q 1356 4103 1231 4103 
Q 1097 4103 995 4051 
Q 894 4000 825 3878 
Q 756 3756 722 3553 
Q 688 3350 688 3047 
Q 688 2750 723 2547 
Q 759 2344 826 2220 
Q 894 2097 994 2044 
Q 1094 1991 1225 1991 
Q 1344 1991 1441 2044 
Q 1538 2097 1606 2220 
Q 1675 2344 1712 2547 
Q 1750 2750 1750 3047 
z
" transform="scale(0.015625)"/>
       </defs>
       <use xlink:href="#LiberationSans-32"/>
       <use xlink:href="#LiberationSans-30" x="55.615234"/>
       <use xlink:href="#LiberationSans-25" x="111.230469"/>
      </g>
     </g>
    </g>
    <g id="xtick_2">
     <g id="line2d_2"/>
     <g id="text_2">
      <!-- 30% -->
      <g style="fill: #262626" transform="translate(163.449087 330.323125) scale(0.1 -0.1)">
       <defs>
        <path id="LiberationSans-33" d="M 3278 1216 
Q 3278 913 3179 675 
Q 3081 438 2892 273 
Q 2703 109 2423 23 
Q 2144 -63 1784 -63 
Q 1375 -63 1095 39 
Q 816 141 634 308 
Q 453 475 362 689 
Q 272 903 244 1131 
L 825 1184 
Q 850 1009 917 865 
Q 984 722 1100 619 
Q 1216 516 1384 459 
Q 1553 403 1784 403 
Q 2209 403 2451 612 
Q 2694 822 2694 1234 
Q 2694 1478 2586 1626 
Q 2478 1775 2317 1858 
Q 2156 1941 1967 1969 
Q 1778 1997 1619 1997 
L 1300 1997 
L 1300 2484 
L 1606 2484 
Q 1766 2484 1937 2517 
Q 2109 2550 2251 2636 
Q 2394 2722 2486 2869 
Q 2578 3016 2578 3244 
Q 2578 3597 2370 3801 
Q 2163 4006 1753 4006 
Q 1381 4006 1151 3815 
Q 922 3625 884 3278 
L 319 3322 
Q 353 3613 478 3828 
Q 603 4044 795 4186 
Q 988 4328 1234 4398 
Q 1481 4469 1759 4469 
Q 2128 4469 2393 4376 
Q 2659 4284 2828 4126 
Q 2997 3969 3076 3756 
Q 3156 3544 3156 3303 
Q 3156 3109 3103 2940 
Q 3050 2772 2937 2637 
Q 2825 2503 2651 2406 
Q 2478 2309 2234 2259 
L 2234 2247 
Q 2500 2219 2697 2126 
Q 2894 2034 3022 1896 
Q 3150 1759 3214 1584 
Q 3278 1409 3278 1216 
z
" transform="scale(0.015625)"/>
       </defs>
       <use xlink:href="#LiberationSans-33"/>
       <use xlink:href="#LiberationSans-30" x="55.615234"/>
       <use xlink:href="#LiberationSans-25" x="111.230469"/>
      </g>
     </g>
    </g>
    <g id="xtick_3">
     <g id="line2d_3"/>
     <g id="text_3">
      <!-- 40% -->
      <g style="fill: #262626" transform="translate(241.800641 330.323125) scale(0.1 -0.1)">
       <defs>
        <path id="LiberationSans-34" d="M 2753 997 
L 2753 0 
L 2222 0 
L 2222 997 
L 147 997 
L 147 1434 
L 2163 4403 
L 2753 4403 
L 2753 1441 
L 3372 1441 
L 3372 997 
L 2753 997 
z
M 2222 3769 
Q 2216 3753 2191 3708 
Q 2166 3663 2134 3606 
Q 2103 3550 2070 3492 
Q 2038 3434 2013 3397 
L 884 1734 
Q 869 1709 839 1668 
Q 809 1628 778 1586 
Q 747 1544 715 1503 
Q 684 1463 666 1441 
L 2222 1441 
L 2222 3769 
z
" transform="scale(0.015625)"/>
       </defs>
       <use xlink:href="#LiberationSans-34"/>
       <use xlink:href="#LiberationSans-30" x="55.615234"/>
       <use xlink:href="#LiberationSans-25" x="111.230469"/>
      </g>
     </g>
    </g>
    <g id="xtick_4">
     <g id="line2d_4"/>
     <g id="text_4">
      <!-- 50% -->
      <g style="fill: #262626" transform="translate(320.152195 330.323125) scale(0.1 -0.1)">
       <defs>
        <path id="LiberationSans-35" d="M 3291 1434 
Q 3291 1103 3191 828 
Q 3091 553 2894 354 
Q 2697 156 2405 46 
Q 2113 -63 1728 -63 
Q 1381 -63 1123 18 
Q 866 100 687 242 
Q 509 384 404 575 
Q 300 766 256 984 
L 825 1050 
Q 859 925 921 808 
Q 984 691 1092 598 
Q 1200 506 1358 451 
Q 1516 397 1741 397 
Q 1959 397 2137 464 
Q 2316 531 2442 662 
Q 2569 794 2637 984 
Q 2706 1175 2706 1422 
Q 2706 1625 2640 1795 
Q 2575 1966 2453 2089 
Q 2331 2213 2154 2281 
Q 1978 2350 1753 2350 
Q 1613 2350 1494 2325 
Q 1375 2300 1273 2256 
Q 1172 2213 1089 2155 
Q 1006 2097 934 2034 
L 384 2034 
L 531 4403 
L 3034 4403 
L 3034 3925 
L 1044 3925 
L 959 2528 
Q 1109 2644 1334 2726 
Q 1559 2809 1869 2809 
Q 2197 2809 2459 2709 
Q 2722 2609 2906 2426 
Q 3091 2244 3191 1991 
Q 3291 1738 3291 1434 
z
" transform="scale(0.015625)"/>
       </defs>
       <use xlink:href="#LiberationSans-35"/>
       <use xlink:href="#LiberationSans-30" x="55.615234"/>
       <use xlink:href="#LiberationSans-25" x="111.230469"/>
      </g>
     </g>
    </g>
    <g id="xtick_5">
     <g id="line2d_5"/>
     <g id="text_5">
      <!-- 60% -->
      <g style="fill: #262626" transform="translate(398.50375 330.323125) scale(0.1 -0.1)">
       <defs>
        <path id="LiberationSans-36" d="M 3278 1441 
Q 3278 1109 3186 832 
Q 3094 556 2914 357 
Q 2734 159 2468 48 
Q 2203 -63 1856 -63 
Q 1472 -63 1184 84 
Q 897 231 706 507 
Q 516 784 420 1186 
Q 325 1588 325 2100 
Q 325 2688 433 3131 
Q 541 3575 744 3872 
Q 947 4169 1239 4319 
Q 1531 4469 1900 4469 
Q 2125 4469 2322 4422 
Q 2519 4375 2680 4270 
Q 2841 4166 2962 3994 
Q 3084 3822 3156 3572 
L 2619 3475 
Q 2531 3759 2339 3886 
Q 2147 4013 1894 4013 
Q 1663 4013 1475 3903 
Q 1288 3794 1156 3576 
Q 1025 3359 954 3031 
Q 884 2703 884 2266 
Q 1038 2550 1316 2698 
Q 1594 2847 1953 2847 
Q 2253 2847 2497 2750 
Q 2741 2653 2914 2470 
Q 3088 2288 3183 2027 
Q 3278 1766 3278 1441 
z
M 2706 1416 
Q 2706 1644 2650 1828 
Q 2594 2013 2481 2142 
Q 2369 2272 2203 2342 
Q 2038 2413 1819 2413 
Q 1666 2413 1509 2367 
Q 1353 2322 1226 2220 
Q 1100 2119 1020 1953 
Q 941 1788 941 1550 
Q 941 1306 1003 1095 
Q 1066 884 1183 728 
Q 1300 572 1465 481 
Q 1631 391 1838 391 
Q 2041 391 2202 461 
Q 2363 531 2475 664 
Q 2588 797 2647 987 
Q 2706 1178 2706 1416 
z
" transform="scale(0.015625)"/>
       </defs>
       <use xlink:href="#LiberationSans-36"/>
       <use xlink:href="#LiberationSans-30" x="55.615234"/>
       <use xlink:href="#LiberationSans-25" x="111.230469"/>
      </g>
     </g>
    </g>
    <g id="xtick_6">
     <g id="line2d_6"/>
     <g id="text_6">
      <!-- 70% -->
      <g style="fill: #262626" transform="translate(476.855304 330.323125) scale(0.1 -0.1)">
       <defs>
        <path id="LiberationSans-37" d="M 3238 3947 
Q 2906 3441 2628 2973 
Q 2350 2506 2150 2032 
Q 1950 1559 1839 1061 
Q 1728 563 1728 0 
L 1141 0 
Q 1141 528 1266 1036 
Q 1391 1544 1603 2033 
Q 1816 2522 2097 2994 
Q 2378 3466 2694 3925 
L 328 3925 
L 328 4403 
L 3238 4403 
L 3238 3947 
z
" transform="scale(0.015625)"/>
       </defs>
       <use xlink:href="#LiberationSans-37"/>
       <use xlink:href="#LiberationSans-30" x="55.615234"/>
       <use xlink:href="#LiberationSans-25" x="111.230469"/>
      </g>
     </g>
    </g>
    <g id="xtick_7">
     <g id="line2d_7"/>
     <g id="text_7">
      <!-- 80% -->
      <g style="fill: #262626" transform="translate(555.206859 330.323125) scale(0.1 -0.1)">
       <defs>
        <path id="LiberationSans-38" d="M 3281 1228 
Q 3281 947 3192 711 
Q 3103 475 2920 303 
Q 2738 131 2453 34 
Q 2169 -63 1781 -63 
Q 1394 -63 1111 34 
Q 828 131 642 301 
Q 456 472 367 708 
Q 278 944 278 1222 
Q 278 1463 351 1650 
Q 425 1838 548 1973 
Q 672 2109 830 2192 
Q 988 2275 1156 2303 
L 1156 2316 
Q 972 2359 826 2456 
Q 681 2553 582 2689 
Q 484 2825 432 2990 
Q 381 3156 381 3341 
Q 381 3572 470 3776 
Q 559 3981 734 4136 
Q 909 4291 1168 4380 
Q 1428 4469 1769 4469 
Q 2128 4469 2392 4378 
Q 2656 4288 2829 4133 
Q 3003 3978 3087 3772 
Q 3172 3566 3172 3334 
Q 3172 3153 3120 2987 
Q 3069 2822 2970 2686 
Q 2872 2550 2726 2454 
Q 2581 2359 2391 2322 
L 2391 2309 
Q 2581 2278 2743 2195 
Q 2906 2113 3025 1977 
Q 3144 1841 3212 1653 
Q 3281 1466 3281 1228 
z
M 2588 3303 
Q 2588 3469 2545 3606 
Q 2503 3744 2406 3842 
Q 2309 3941 2153 3995 
Q 1997 4050 1769 4050 
Q 1547 4050 1394 3995 
Q 1241 3941 1142 3842 
Q 1044 3744 1000 3606 
Q 956 3469 956 3303 
Q 956 3172 990 3034 
Q 1025 2897 1115 2784 
Q 1206 2672 1365 2600 
Q 1525 2528 1775 2528 
Q 2041 2528 2202 2600 
Q 2363 2672 2448 2784 
Q 2534 2897 2561 3034 
Q 2588 3172 2588 3303 
z
M 2697 1281 
Q 2697 1441 2653 1589 
Q 2609 1738 2503 1852 
Q 2397 1966 2217 2036 
Q 2038 2106 1769 2106 
Q 1522 2106 1348 2036 
Q 1175 1966 1067 1850 
Q 959 1734 909 1582 
Q 859 1431 859 1269 
Q 859 1066 909 898 
Q 959 731 1068 611 
Q 1178 491 1356 425 
Q 1534 359 1788 359 
Q 2044 359 2219 425 
Q 2394 491 2500 611 
Q 2606 731 2651 901 
Q 2697 1072 2697 1281 
z
" transform="scale(0.015625)"/>
       </defs>
       <use xlink:href="#LiberationSans-38"/>
       <use xlink:href="#LiberationSans-30" x="55.615234"/>
       <use xlink:href="#LiberationSans-25" x="111.230469"/>
      </g>
     </g>
    </g>
    <g id="xtick_8">
     <g id="line2d_8"/>
     <g id="text_8">
      <!-- 90% -->
      <g style="fill: #262626" transform="translate(633.558413 330.323125) scale(0.1 -0.1)">
       <defs>
        <path id="LiberationSans-39" d="M 3256 2291 
Q 3256 1703 3145 1261 
Q 3034 819 2828 525 
Q 2622 231 2326 84 
Q 2031 -63 1663 -63 
Q 1409 -63 1206 -11 
Q 1003 41 843 150 
Q 684 259 571 434 
Q 459 609 391 856 
L 928 941 
Q 1016 656 1202 523 
Q 1388 391 1672 391 
Q 1900 391 2089 498 
Q 2278 606 2411 822 
Q 2544 1038 2619 1363 
Q 2694 1688 2700 2125 
Q 2634 1978 2520 1862 
Q 2406 1747 2261 1667 
Q 2116 1588 1947 1545 
Q 1778 1503 1606 1503 
Q 1306 1503 1064 1611 
Q 822 1719 653 1912 
Q 484 2106 392 2379 
Q 300 2653 300 2988 
Q 300 3328 398 3603 
Q 497 3878 684 4070 
Q 872 4263 1145 4366 
Q 1419 4469 1766 4469 
Q 2500 4469 2878 3925 
Q 3256 3381 3256 2291 
z
M 2644 2834 
Q 2644 3078 2586 3293 
Q 2528 3509 2414 3668 
Q 2300 3828 2133 3920 
Q 1966 4013 1747 4013 
Q 1544 4013 1381 3941 
Q 1219 3869 1106 3736 
Q 994 3603 933 3412 
Q 872 3222 872 2988 
Q 872 2766 926 2575 
Q 981 2384 1090 2245 
Q 1200 2106 1362 2026 
Q 1525 1947 1741 1947 
Q 1897 1947 2058 2000 
Q 2219 2053 2348 2162 
Q 2478 2272 2561 2439 
Q 2644 2606 2644 2834 
z
" transform="scale(0.015625)"/>
       </defs>
       <use xlink:href="#LiberationSans-39"/>
       <use xlink:href="#LiberationSans-30" x="55.615234"/>
       <use xlink:href="#LiberationSans-25" x="111.230469"/>
      </g>
     </g>
    </g>
    <g id="text_9">
     <!-- Diversity Among a National Porfolio of Retail REIT Properties -->
     <g style="fill: #262626" transform="translate(230.911719 343.645) scale(0.1 -0.1)">
      <defs>
       <path id="LiberationSans-44" d="M 4316 2247 
Q 4316 1697 4150 1276 
Q 3984 856 3696 573 
Q 3409 291 3017 145 
Q 2625 0 2172 0 
L 525 0 
L 525 4403 
L 1981 4403 
Q 2491 4403 2920 4276 
Q 3350 4150 3659 3886 
Q 3969 3622 4142 3215 
Q 4316 2809 4316 2247 
z
M 3716 2247 
Q 3716 2694 3587 3011 
Q 3459 3328 3228 3531 
Q 2997 3734 2675 3829 
Q 2353 3925 1969 3925 
L 1122 3925 
L 1122 478 
L 2103 478 
Q 2450 478 2745 590 
Q 3041 703 3256 925 
Q 3472 1147 3594 1478 
Q 3716 1809 3716 2247 
z
" transform="scale(0.015625)"/>
       <path id="LiberationSans-69" d="M 428 4100 
L 428 4638 
L 991 4638 
L 991 4100 
L 428 4100 
z
M 428 0 
L 428 3381 
L 991 3381 
L 991 0 
L 428 0 
z
" transform="scale(0.015625)"/>
       <path id="LiberationSans-76" d="M 1916 0 
L 1250 0 
L 22 3381 
L 622 3381 
L 1366 1181 
Q 1388 1113 1417 1014 
Q 1447 916 1478 809 
Q 1509 703 1536 604 
Q 1563 506 1581 441 
Q 1600 506 1629 604 
Q 1659 703 1690 806 
Q 1722 909 1755 1007 
Q 1788 1106 1813 1175 
L 2581 3381 
L 3178 3381 
L 1916 0 
z
" transform="scale(0.015625)"/>
       <path id="LiberationSans-65" d="M 863 1572 
Q 863 1306 917 1082 
Q 972 859 1086 698 
Q 1200 538 1378 448 
Q 1556 359 1806 359 
Q 2172 359 2392 506 
Q 2613 653 2691 878 
L 3184 738 
Q 3131 597 3036 455 
Q 2941 313 2781 198 
Q 2622 84 2383 10 
Q 2144 -63 1806 -63 
Q 1056 -63 664 384 
Q 272 831 272 1713 
Q 272 2188 390 2517 
Q 509 2847 715 3053 
Q 922 3259 1197 3351 
Q 1472 3444 1784 3444 
Q 2209 3444 2495 3306 
Q 2781 3169 2954 2926 
Q 3128 2684 3201 2356 
Q 3275 2028 3275 1647 
L 3275 1572 
L 863 1572 
z
M 2694 2003 
Q 2647 2538 2422 2783 
Q 2197 3028 1775 3028 
Q 1634 3028 1479 2983 
Q 1325 2938 1194 2822 
Q 1063 2706 972 2507 
Q 881 2309 869 2003 
L 2694 2003 
z
" transform="scale(0.015625)"/>
       <path id="LiberationSans-72" d="M 444 0 
L 444 2594 
Q 444 2700 442 2811 
Q 441 2922 437 3025 
Q 434 3128 431 3218 
Q 428 3309 425 3381 
L 956 3381 
Q 959 3309 964 3217 
Q 969 3125 973 3028 
Q 978 2931 979 2842 
Q 981 2753 981 2691 
L 994 2691 
Q 1053 2884 1120 3026 
Q 1188 3169 1278 3261 
Q 1369 3353 1494 3398 
Q 1619 3444 1797 3444 
Q 1866 3444 1928 3433 
Q 1991 3422 2025 3413 
L 2025 2897 
Q 1969 2913 1894 2920 
Q 1819 2928 1725 2928 
Q 1531 2928 1395 2840 
Q 1259 2753 1173 2598 
Q 1088 2444 1047 2230 
Q 1006 2016 1006 1763 
L 1006 0 
L 444 0 
z
" transform="scale(0.015625)"/>
       <path id="LiberationSans-73" d="M 2969 934 
Q 2969 697 2876 511 
Q 2784 325 2609 198 
Q 2434 72 2179 4 
Q 1925 -63 1597 -63 
Q 1303 -63 1067 -17 
Q 831 28 653 128 
Q 475 228 354 392 
Q 234 556 178 794 
L 675 891 
Q 747 619 972 492 
Q 1197 366 1597 366 
Q 1778 366 1929 391 
Q 2081 416 2190 477 
Q 2300 538 2361 639 
Q 2422 741 2422 891 
Q 2422 1044 2350 1142 
Q 2278 1241 2150 1306 
Q 2022 1372 1839 1420 
Q 1656 1469 1438 1528 
Q 1234 1581 1034 1647 
Q 834 1713 673 1820 
Q 513 1928 413 2087 
Q 313 2247 313 2488 
Q 313 2950 642 3192 
Q 972 3434 1603 3434 
Q 2163 3434 2492 3237 
Q 2822 3041 2909 2606 
L 2403 2544 
Q 2375 2675 2300 2764 
Q 2225 2853 2119 2908 
Q 2013 2963 1880 2986 
Q 1747 3009 1603 3009 
Q 1222 3009 1040 2893 
Q 859 2778 859 2544 
Q 859 2406 926 2317 
Q 994 2228 1114 2167 
Q 1234 2106 1403 2061 
Q 1572 2016 1775 1966 
Q 1909 1931 2050 1892 
Q 2191 1853 2323 1798 
Q 2456 1744 2573 1670 
Q 2691 1597 2778 1494 
Q 2866 1391 2917 1253 
Q 2969 1116 2969 934 
z
" transform="scale(0.015625)"/>
       <path id="LiberationSans-74" d="M 1731 25 
Q 1603 -9 1470 -29 
Q 1338 -50 1163 -50 
Q 488 -50 488 716 
L 488 2972 
L 97 2972 
L 97 3381 
L 509 3381 
L 675 4138 
L 1050 4138 
L 1050 3381 
L 1675 3381 
L 1675 2972 
L 1050 2972 
L 1050 838 
Q 1050 594 1129 495 
Q 1209 397 1406 397 
Q 1488 397 1564 409 
Q 1641 422 1731 441 
L 1731 25 
z
" transform="scale(0.015625)"/>
       <path id="LiberationSans-79" d="M 1888 0 
Q 1769 -306 1645 -551 
Q 1522 -797 1369 -970 
Q 1216 -1144 1028 -1236 
Q 841 -1328 597 -1328 
Q 491 -1328 400 -1322 
Q 309 -1316 209 -1294 
L 209 -872 
Q 269 -881 344 -886 
Q 419 -891 472 -891 
Q 719 -891 931 -706 
Q 1144 -522 1303 -119 
L 1356 16 
L 16 3381 
L 616 3381 
L 1328 1513 
Q 1359 1428 1407 1287 
Q 1456 1147 1504 1006 
Q 1553 866 1590 753 
Q 1628 641 1634 613 
Q 1644 647 1680 748 
Q 1716 850 1761 975 
Q 1806 1100 1853 1228 
Q 1900 1356 1931 1450 
L 2594 3381 
L 3188 3381 
L 1888 0 
z
" transform="scale(0.015625)"/>
       <path id="LiberationSans-20" transform="scale(0.015625)"/>
       <path id="LiberationSans-41" d="M 3647 0 
L 3144 1288 
L 1138 1288 
L 631 0 
L 13 0 
L 1809 4403 
L 2488 4403 
L 4256 0 
L 3647 0 
z
M 2400 3206 
Q 2350 3331 2304 3459 
Q 2259 3588 2225 3692 
Q 2191 3797 2167 3867 
Q 2144 3938 2141 3953 
Q 2134 3938 2112 3866 
Q 2091 3794 2055 3687 
Q 2019 3581 1973 3453 
Q 1928 3325 1881 3200 
L 1319 1753 
L 2966 1753 
L 2400 3206 
z
" transform="scale(0.015625)"/>
       <path id="LiberationSans-6d" d="M 2400 0 
L 2400 2144 
Q 2400 2391 2369 2556 
Q 2338 2722 2264 2823 
Q 2191 2925 2072 2967 
Q 1953 3009 1781 3009 
Q 1603 3009 1459 2939 
Q 1316 2869 1214 2736 
Q 1113 2603 1058 2408 
Q 1003 2213 1003 1959 
L 1003 0 
L 444 0 
L 444 2659 
Q 444 2766 442 2883 
Q 441 3000 437 3104 
Q 434 3209 431 3284 
Q 428 3359 425 3381 
L 956 3381 
Q 959 3366 962 3297 
Q 966 3228 970 3139 
Q 975 3050 978 2958 
Q 981 2866 981 2803 
L 991 2803 
Q 1066 2950 1153 3069 
Q 1241 3188 1358 3270 
Q 1475 3353 1626 3398 
Q 1778 3444 1978 3444 
Q 2363 3444 2586 3291 
Q 2809 3138 2897 2803 
L 2906 2803 
Q 2981 2950 3075 3069 
Q 3169 3188 3294 3270 
Q 3419 3353 3575 3398 
Q 3731 3444 3931 3444 
Q 4188 3444 4373 3375 
Q 4559 3306 4678 3162 
Q 4797 3019 4853 2792 
Q 4909 2566 4909 2253 
L 4909 0 
L 4353 0 
L 4353 2144 
Q 4353 2391 4322 2556 
Q 4291 2722 4217 2823 
Q 4144 2925 4025 2967 
Q 3906 3009 3734 3009 
Q 3556 3009 3412 2942 
Q 3269 2875 3167 2744 
Q 3066 2613 3011 2416 
Q 2956 2219 2956 1959 
L 2956 0 
L 2400 0 
z
" transform="scale(0.015625)"/>
       <path id="LiberationSans-6f" d="M 3291 1694 
Q 3291 806 2900 371 
Q 2509 -63 1766 -63 
Q 1413 -63 1134 43 
Q 856 150 664 369 
Q 472 588 370 917 
Q 269 1247 269 1694 
Q 269 3444 1784 3444 
Q 2178 3444 2464 3334 
Q 2750 3225 2933 3006 
Q 3116 2788 3203 2459 
Q 3291 2131 3291 1694 
z
M 2700 1694 
Q 2700 2088 2639 2344 
Q 2578 2600 2461 2753 
Q 2344 2906 2175 2967 
Q 2006 3028 1794 3028 
Q 1578 3028 1404 2964 
Q 1231 2900 1109 2745 
Q 988 2591 923 2334 
Q 859 2078 859 1694 
Q 859 1300 928 1042 
Q 997 784 1117 631 
Q 1238 478 1402 415 
Q 1566 353 1759 353 
Q 1975 353 2150 414 
Q 2325 475 2447 628 
Q 2569 781 2634 1040 
Q 2700 1300 2700 1694 
z
" transform="scale(0.015625)"/>
       <path id="LiberationSans-6e" d="M 2578 0 
L 2578 2144 
Q 2578 2391 2542 2556 
Q 2506 2722 2425 2823 
Q 2344 2925 2211 2967 
Q 2078 3009 1881 3009 
Q 1681 3009 1520 2939 
Q 1359 2869 1245 2736 
Q 1131 2603 1068 2408 
Q 1006 2213 1006 1959 
L 1006 0 
L 444 0 
L 444 2659 
Q 444 2766 442 2883 
Q 441 3000 437 3104 
Q 434 3209 431 3284 
Q 428 3359 425 3381 
L 956 3381 
Q 959 3366 962 3297 
Q 966 3228 970 3139 
Q 975 3050 978 2958 
Q 981 2866 981 2803 
L 991 2803 
Q 1072 2950 1169 3069 
Q 1266 3188 1394 3270 
Q 1522 3353 1687 3398 
Q 1853 3444 2072 3444 
Q 2353 3444 2556 3375 
Q 2759 3306 2890 3162 
Q 3022 3019 3083 2792 
Q 3144 2566 3144 2253 
L 3144 0 
L 2578 0 
z
" transform="scale(0.015625)"/>
       <path id="LiberationSans-67" d="M 1713 -1328 
Q 1422 -1328 1197 -1268 
Q 972 -1209 812 -1098 
Q 653 -988 553 -834 
Q 453 -681 409 -494 
L 975 -413 
Q 1031 -647 1223 -773 
Q 1416 -900 1728 -900 
Q 1919 -900 2075 -847 
Q 2231 -794 2340 -676 
Q 2450 -559 2509 -371 
Q 2569 -184 2569 84 
L 2569 628 
L 2563 628 
Q 2500 500 2408 383 
Q 2316 266 2183 175 
Q 2050 84 1875 29 
Q 1700 -25 1475 -25 
Q 1153 -25 923 83 
Q 694 191 548 406 
Q 403 622 336 942 
Q 269 1263 269 1684 
Q 269 2091 336 2416 
Q 403 2741 554 2967 
Q 706 3194 948 3314 
Q 1191 3434 1538 3434 
Q 1897 3434 2161 3270 
Q 2425 3106 2569 2803 
L 2575 2803 
Q 2575 2881 2579 2978 
Q 2584 3075 2589 3161 
Q 2594 3247 2600 3309 
Q 2606 3372 2613 3381 
L 3147 3381 
Q 3144 3353 3141 3286 
Q 3138 3219 3134 3125 
Q 3131 3031 3129 2917 
Q 3128 2803 3128 2681 
L 3128 97 
Q 3128 -613 2779 -970 
Q 2431 -1328 1713 -1328 
z
M 2569 1691 
Q 2569 2044 2492 2295 
Q 2416 2547 2291 2706 
Q 2166 2866 2005 2941 
Q 1844 3016 1675 3016 
Q 1459 3016 1304 2941 
Q 1150 2866 1048 2705 
Q 947 2544 898 2292 
Q 850 2041 850 1691 
Q 850 1325 898 1076 
Q 947 828 1047 675 
Q 1147 522 1300 456 
Q 1453 391 1666 391 
Q 1834 391 1995 462 
Q 2156 534 2284 690 
Q 2413 847 2491 1094 
Q 2569 1341 2569 1691 
z
" transform="scale(0.015625)"/>
       <path id="LiberationSans-61" d="M 1294 -63 
Q 784 -63 528 206 
Q 272 475 272 944 
Q 272 1278 398 1492 
Q 525 1706 729 1828 
Q 934 1950 1196 1997 
Q 1459 2044 1731 2050 
L 2491 2063 
L 2491 2247 
Q 2491 2456 2447 2603 
Q 2403 2750 2312 2840 
Q 2222 2931 2086 2973 
Q 1950 3016 1766 3016 
Q 1603 3016 1472 2992 
Q 1341 2969 1244 2908 
Q 1147 2847 1087 2742 
Q 1028 2638 1009 2478 
L 422 2531 
Q 453 2731 540 2898 
Q 628 3066 789 3187 
Q 950 3309 1192 3376 
Q 1434 3444 1778 3444 
Q 2416 3444 2737 3151 
Q 3059 2859 3059 2306 
L 3059 850 
Q 3059 600 3125 473 
Q 3191 347 3375 347 
Q 3422 347 3469 353 
Q 3516 359 3559 369 
L 3559 19 
Q 3453 -6 3348 -18 
Q 3244 -31 3125 -31 
Q 2966 -31 2852 11 
Q 2738 53 2666 139 
Q 2594 225 2556 351 
Q 2519 478 2509 647 
L 2491 647 
Q 2400 484 2292 353 
Q 2184 222 2040 130 
Q 1897 38 1714 -12 
Q 1531 -63 1294 -63 
z
M 1422 359 
Q 1691 359 1892 457 
Q 2094 556 2226 709 
Q 2359 863 2425 1044 
Q 2491 1225 2491 1391 
L 2491 1669 
L 1875 1656 
Q 1669 1653 1483 1626 
Q 1297 1600 1156 1522 
Q 1016 1444 933 1303 
Q 850 1163 850 934 
Q 850 659 998 509 
Q 1147 359 1422 359 
z
" transform="scale(0.015625)"/>
       <path id="LiberationSans-4e" d="M 3381 0 
L 1025 3750 
Q 1031 3597 1041 3447 
Q 1047 3319 1051 3176 
Q 1056 3034 1056 2925 
L 1056 0 
L 525 0 
L 525 4403 
L 1219 4403 
L 3600 628 
Q 3591 781 3581 934 
Q 3575 1066 3569 1220 
Q 3563 1375 3563 1516 
L 3563 4403 
L 4100 4403 
L 4100 0 
L 3381 0 
z
" transform="scale(0.015625)"/>
       <path id="LiberationSans-6c" d="M 431 0 
L 431 4638 
L 994 4638 
L 994 0 
L 431 0 
z
" transform="scale(0.015625)"/>
       <path id="LiberationSans-50" d="M 3931 3078 
Q 3931 2791 3836 2542 
Q 3741 2294 3552 2111 
Q 3363 1928 3078 1822 
Q 2794 1716 2416 1716 
L 1122 1716 
L 1122 0 
L 525 0 
L 525 4403 
L 2378 4403 
Q 2769 4403 3059 4308 
Q 3350 4213 3544 4039 
Q 3738 3866 3834 3620 
Q 3931 3375 3931 3078 
z
M 3331 3072 
Q 3331 3491 3075 3708 
Q 2819 3925 2306 3925 
L 1122 3925 
L 1122 2188 
L 2331 2188 
Q 2847 2188 3089 2416 
Q 3331 2644 3331 3072 
z
" transform="scale(0.015625)"/>
       <path id="LiberationSans-66" d="M 1128 2972 
L 1128 0 
L 566 0 
L 566 2972 
L 91 2972 
L 91 3381 
L 566 3381 
L 566 3763 
Q 566 3947 600 4105 
Q 634 4263 726 4380 
Q 819 4497 978 4564 
Q 1138 4631 1391 4631 
Q 1491 4631 1598 4622 
Q 1706 4613 1788 4594 
L 1788 4166 
Q 1734 4175 1664 4183 
Q 1594 4191 1538 4191 
Q 1413 4191 1333 4156 
Q 1253 4122 1208 4058 
Q 1163 3994 1145 3900 
Q 1128 3806 1128 3684 
L 1128 3381 
L 1788 3381 
L 1788 2972 
L 1128 2972 
z
" transform="scale(0.015625)"/>
       <path id="LiberationSans-52" d="M 3638 0 
L 2494 1828 
L 1122 1828 
L 1122 0 
L 525 0 
L 525 4403 
L 2597 4403 
Q 2972 4403 3261 4317 
Q 3550 4231 3747 4068 
Q 3944 3906 4047 3672 
Q 4150 3438 4150 3144 
Q 4150 2934 4089 2731 
Q 4028 2528 3897 2359 
Q 3766 2191 3562 2069 
Q 3359 1947 3075 1897 
L 4325 0 
L 3638 0 
z
M 3550 3138 
Q 3550 3338 3481 3484 
Q 3413 3631 3281 3729 
Q 3150 3828 2962 3876 
Q 2775 3925 2538 3925 
L 1122 3925 
L 1122 2300 
L 2563 2300 
Q 2819 2300 3006 2364 
Q 3194 2428 3314 2540 
Q 3434 2653 3492 2806 
Q 3550 2959 3550 3138 
z
" transform="scale(0.015625)"/>
       <path id="LiberationSans-45" d="M 525 0 
L 525 4403 
L 3866 4403 
L 3866 3916 
L 1122 3916 
L 1122 2503 
L 3678 2503 
L 3678 2022 
L 1122 2022 
L 1122 488 
L 3994 488 
L 3994 0 
L 525 0 
z
" transform="scale(0.015625)"/>
       <path id="LiberationSans-49" d="M 591 0 
L 591 4403 
L 1188 4403 
L 1188 0 
L 591 0 
z
" transform="scale(0.015625)"/>
       <path id="LiberationSans-54" d="M 2250 3916 
L 2250 0 
L 1656 0 
L 1656 3916 
L 144 3916 
L 144 4403 
L 3763 4403 
L 3763 3916 
L 2250 3916 
z
" transform="scale(0.015625)"/>
       <path id="LiberationSans-70" d="M 3291 1706 
Q 3291 1322 3228 997 
Q 3166 672 3020 437 
Q 2875 203 2636 70 
Q 2397 -63 2047 -63 
Q 1684 -63 1412 75 
Q 1141 213 997 525 
L 981 525 
Q 984 519 986 469 
Q 988 419 989 344 
Q 991 269 992 176 
Q 994 84 994 -6 
L 994 -1328 
L 431 -1328 
L 431 2691 
Q 431 2813 429 2925 
Q 428 3038 425 3130 
Q 422 3222 419 3287 
Q 416 3353 413 3381 
L 956 3381 
Q 959 3372 964 3315 
Q 969 3259 973 3179 
Q 978 3100 983 3009 
Q 988 2919 988 2838 
L 1000 2838 
Q 1078 3000 1178 3114 
Q 1278 3228 1406 3301 
Q 1534 3375 1692 3408 
Q 1850 3441 2047 3441 
Q 2397 3441 2636 3316 
Q 2875 3191 3020 2964 
Q 3166 2738 3228 2417 
Q 3291 2097 3291 1706 
z
M 2700 1694 
Q 2700 2006 2662 2250 
Q 2625 2494 2533 2662 
Q 2441 2831 2287 2918 
Q 2134 3006 1903 3006 
Q 1716 3006 1550 2953 
Q 1384 2900 1261 2750 
Q 1138 2600 1066 2336 
Q 994 2072 994 1650 
Q 994 1291 1053 1042 
Q 1113 794 1227 641 
Q 1341 488 1509 420 
Q 1678 353 1897 353 
Q 2131 353 2286 443 
Q 2441 534 2533 706 
Q 2625 878 2662 1126 
Q 2700 1375 2700 1694 
z
" transform="scale(0.015625)"/>
      </defs>
      <use xlink:href="#LiberationSans-44"/>
      <use xlink:href="#LiberationSans-69" x="72.216797"/>
      <use xlink:href="#LiberationSans-76" x="94.433594"/>
      <use xlink:href="#LiberationSans-65" x="144.433594"/>
      <use xlink:href="#LiberationSans-72" x="200.048828"/>
      <use xlink:href="#LiberationSans-73" x="233.349609"/>
      <use xlink:href="#LiberationSans-69" x="283.349609"/>
      <use xlink:href="#LiberationSans-74" x="305.566406"/>
      <use xlink:href="#LiberationSans-79" x="333.349609"/>
      <use xlink:href="#LiberationSans-20" x="383.349609"/>
      <use xlink:href="#LiberationSans-41" x="405.632812"/>
      <use xlink:href="#LiberationSans-6d" x="472.332031"/>
      <use xlink:href="#LiberationSans-6f" x="555.632812"/>
      <use xlink:href="#LiberationSans-6e" x="611.248047"/>
      <use xlink:href="#LiberationSans-67" x="666.863281"/>
      <use xlink:href="#LiberationSans-20" x="722.478516"/>
      <use xlink:href="#LiberationSans-61" x="750.261719"/>
      <use xlink:href="#LiberationSans-20" x="805.876953"/>
      <use xlink:href="#LiberationSans-4e" x="833.660156"/>
      <use xlink:href="#LiberationSans-61" x="905.876953"/>
      <use xlink:href="#LiberationSans-74" x="961.492188"/>
      <use xlink:href="#LiberationSans-69" x="989.275391"/>
      <use xlink:href="#LiberationSans-6f" x="1011.492188"/>
      <use xlink:href="#LiberationSans-6e" x="1067.107422"/>
      <use xlink:href="#LiberationSans-61" x="1122.722656"/>
      <use xlink:href="#LiberationSans-6c" x="1178.337891"/>
      <use xlink:href="#LiberationSans-20" x="1200.554688"/>
      <use xlink:href="#LiberationSans-50" x="1228.337891"/>
      <use xlink:href="#LiberationSans-6f" x="1295.037109"/>
      <use xlink:href="#LiberationSans-72" x="1350.652344"/>
      <use xlink:href="#LiberationSans-66" x="1383.953125"/>
      <use xlink:href="#LiberationSans-6f" x="1411.736328"/>
      <use xlink:href="#LiberationSans-6c" x="1467.351562"/>
      <use xlink:href="#LiberationSans-69" x="1489.568359"/>
      <use xlink:href="#LiberationSans-6f" x="1511.785156"/>
      <use xlink:href="#LiberationSans-20" x="1567.400391"/>
      <use xlink:href="#LiberationSans-6f" x="1595.183594"/>
      <use xlink:href="#LiberationSans-66" x="1650.798828"/>
      <use xlink:href="#LiberationSans-20" x="1678.582031"/>
      <use xlink:href="#LiberationSans-52" x="1706.365234"/>
      <use xlink:href="#LiberationSans-65" x="1778.582031"/>
      <use xlink:href="#LiberationSans-74" x="1834.197266"/>
      <use xlink:href="#LiberationSans-61" x="1861.980469"/>
      <use xlink:href="#LiberationSans-69" x="1917.595703"/>
      <use xlink:href="#LiberationSans-6c" x="1939.8125"/>
      <use xlink:href="#LiberationSans-20" x="1962.029297"/>
      <use xlink:href="#LiberationSans-52" x="1989.8125"/>
      <use xlink:href="#LiberationSans-45" x="2062.029297"/>
      <use xlink:href="#LiberationSans-49" x="2128.728516"/>
      <use xlink:href="#LiberationSans-54" x="2156.511719"/>
      <use xlink:href="#LiberationSans-20" x="2215.845703"/>
      <use xlink:href="#LiberationSans-50" x="2243.628906"/>
      <use xlink:href="#LiberationSans-72" x="2310.328125"/>
      <use xlink:href="#LiberationSans-6f" x="2343.628906"/>
      <use xlink:href="#LiberationSans-70" x="2399.244141"/>
      <use xlink:href="#LiberationSans-65" x="2454.859375"/>
      <use xlink:href="#LiberationSans-72" x="2510.474609"/>
      <use xlink:href="#LiberationSans-74" x="2543.775391"/>
      <use xlink:href="#LiberationSans-69" x="2571.558594"/>
      <use xlink:href="#LiberationSans-65" x="2593.775391"/>
      <use xlink:href="#LiberationSans-73" x="2649.390625"/>
     </g>
    </g>
   </g>
   <g id="matplotlib.axis_2">
    <g id="ytick_1">
     <g id="line2d_9"/>
     <g id="text_10">
      <!-- 0.0 -->
      <g style="fill: #262626" transform="translate(7.2 310.911506) scale(0.1 -0.1)">
       <defs>
        <path id="LiberationSans-2e" d="M 584 0 
L 584 684 
L 1194 684 
L 1194 0 
L 584 0 
z
" transform="scale(0.015625)"/>
       </defs>
       <use xlink:href="#LiberationSans-30"/>
       <use xlink:href="#LiberationSans-2e" x="55.615234"/>
       <use xlink:href="#LiberationSans-30" x="83.398438"/>
      </g>
     </g>
    </g>
    <g id="ytick_2">
     <g id="line2d_10"/>
     <g id="text_11">
      <!-- 0.5 -->
      <g style="fill: #262626" transform="translate(7.2 272.044684) scale(0.1 -0.1)">
       <use xlink:href="#LiberationSans-30"/>
       <use xlink:href="#LiberationSans-2e" x="55.615234"/>
       <use xlink:href="#LiberationSans-35" x="83.398438"/>
      </g>
     </g>
    </g>
    <g id="ytick_3">
     <g id="line2d_11"/>
     <g id="text_12">
      <!-- 1.0 -->
      <g style="fill: #262626" transform="translate(7.2 233.177862) scale(0.1 -0.1)">
       <defs>
        <path id="LiberationSans-31" d="M 488 0 
L 488 478 
L 1609 478 
L 1609 3866 
L 616 3156 
L 616 3688 
L 1656 4403 
L 2175 4403 
L 2175 478 
L 3247 478 
L 3247 0 
L 488 0 
z
" transform="scale(0.015625)"/>
       </defs>
       <use xlink:href="#LiberationSans-31"/>
       <use xlink:href="#LiberationSans-2e" x="55.615234"/>
       <use xlink:href="#LiberationSans-30" x="83.398438"/>
      </g>
     </g>
    </g>
    <g id="ytick_4">
     <g id="line2d_12"/>
     <g id="text_13">
      <!-- 1.5 -->
      <g style="fill: #262626" transform="translate(7.2 194.31104) scale(0.1 -0.1)">
       <use xlink:href="#LiberationSans-31"/>
       <use xlink:href="#LiberationSans-2e" x="55.615234"/>
       <use xlink:href="#LiberationSans-35" x="83.398438"/>
      </g>
     </g>
    </g>
    <g id="ytick_5">
     <g id="line2d_13"/>
     <g id="text_14">
      <!-- 2.0 -->
      <g style="fill: #262626" transform="translate(7.2 155.444218) scale(0.1 -0.1)">
       <use xlink:href="#LiberationSans-32"/>
       <use xlink:href="#LiberationSans-2e" x="55.615234"/>
       <use xlink:href="#LiberationSans-30" x="83.398438"/>
      </g>
     </g>
    </g>
    <g id="ytick_6">
     <g id="line2d_14"/>
     <g id="text_15">
      <!-- 2.5 -->
      <g style="fill: #262626" transform="translate(7.2 116.577397) scale(0.1 -0.1)">
       <use xlink:href="#LiberationSans-32"/>
       <use xlink:href="#LiberationSans-2e" x="55.615234"/>
       <use xlink:href="#LiberationSans-35" x="83.398438"/>
      </g>
     </g>
    </g>
    <g id="ytick_7">
     <g id="line2d_15"/>
     <g id="text_16">
      <!-- 3.0 -->
      <g style="fill: #262626" transform="translate(7.2 77.710575) scale(0.1 -0.1)">
       <use xlink:href="#LiberationSans-33"/>
       <use xlink:href="#LiberationSans-2e" x="55.615234"/>
       <use xlink:href="#LiberationSans-30" x="83.398438"/>
      </g>
     </g>
    </g>
   </g>
   <g id="PolyCollection_1">
    <defs>
     <path id="m4aea67a35c" d="M 55.625 -77.015682 
L 55.625 -80.753341 
L 57.700251 -80.865311 
L 59.775502 -80.969995 
L 61.850753 -81.067449 
L 63.926003 -81.157905 
L 66.001254 -81.241771 
L 68.076505 -81.319621 
L 70.151756 -81.392183 
L 72.227007 -81.460319 
L 74.302258 -81.525009 
L 76.377508 -81.587321 
L 78.452759 -81.648391 
L 80.52801 -81.70939 
L 82.603261 -81.771497 
L 84.678512 -81.835868 
L 86.753763 -81.903611 
L 88.829013 -81.975755 
L 90.904264 -82.053228 
L 92.979515 -82.136838 
L 95.054766 -82.227248 
L 97.130017 -82.32497 
L 99.205268 -82.430354 
L 101.280518 -82.54358 
L 103.355769 -82.664664 
L 105.43102 -82.793464 
L 107.506271 -82.929684 
L 109.581522 -83.072898 
L 111.656773 -83.222561 
L 113.732023 -83.378036 
L 115.807274 -83.538617 
L 117.882525 -83.703553 
L 119.957776 -83.872077 
L 122.033027 -84.043435 
L 124.108278 -84.216905 
L 126.183528 -84.391825 
L 128.258779 -84.567614 
L 130.33403 -84.743784 
L 132.409281 -84.919958 
L 134.484532 -85.095875 
L 136.559783 -85.271391 
L 138.635033 -85.446482 
L 140.710284 -85.621232 
L 142.785535 -85.795823 
L 144.860786 -85.970522 
L 146.936037 -86.145661 
L 149.011288 -86.321614 
L 151.086538 -86.498778 
L 153.161789 -86.677551 
L 155.23704 -86.858307 
L 157.312291 -87.041378 
L 159.387542 -87.227036 
L 161.462793 -87.415479 
L 163.538043 -87.60682 
L 165.613294 -87.801084 
L 167.688545 -87.998202 
L 169.763796 -88.19802 
L 171.839047 -88.400305 
L 173.914298 -88.604759 
L 175.989548 -88.811036 
L 178.064799 -89.018763 
L 180.14005 -89.227564 
L 182.215301 -89.437087 
L 184.290552 -89.647029 
L 186.365803 -89.857166 
L 188.441054 -90.067381 
L 190.516304 -90.277687 
L 192.591555 -90.488256 
L 194.666806 -90.699441 
L 196.742057 -90.911793 
L 198.817308 -91.126076 
L 200.892559 -91.343282 
L 202.967809 -91.564633 
L 205.04306 -91.791587 
L 207.118311 -92.025829 
L 209.193562 -92.269264 
L 211.268813 -92.524001 
L 213.344064 -92.792332 
L 215.419314 -93.076703 
L 217.494565 -93.379687 
L 219.569816 -93.703943 
L 221.645067 -94.052176 
L 223.720318 -94.427096 
L 225.795569 -94.83137 
L 227.870819 -95.267574 
L 229.94607 -95.738151 
L 232.021321 -96.245364 
L 234.096572 -96.791255 
L 236.171823 -97.377612 
L 238.247074 -98.005936 
L 240.322324 -98.677422 
L 242.397575 -99.392947 
L 244.472826 -100.153063 
L 246.548077 -100.958011 
L 248.623328 -101.807732 
L 250.698579 -102.701898 
L 252.773829 -103.639949 
L 254.84908 -104.62114 
L 256.924331 -105.644589 
L 258.999582 -106.709341 
L 261.074833 -107.81442 
L 263.150084 -108.958897 
L 265.225334 -110.141944 
L 267.300585 -111.362886 
L 269.375836 -112.62125 
L 271.451087 -113.9168 
L 273.526338 -115.249562 
L 275.601589 -116.619833 
L 277.676839 -118.028182 
L 279.75209 -119.475426 
L 281.827341 -120.962605 
L 283.902592 -122.490925 
L 285.977843 -124.061709 
L 288.053094 -125.676317 
L 290.128344 -127.336071 
L 292.203595 -129.042169 
L 294.278846 -130.795599 
L 296.354097 -132.597052 
L 298.429348 -134.44684 
L 300.504599 -136.344827 
L 302.579849 -138.290363 
L 304.6551 -140.282247 
L 306.730351 -142.318692 
L 308.805602 -144.397318 
L 310.880853 -146.51517 
L 312.956104 -148.668749 
L 315.031355 -150.854069 
L 317.106605 -153.066734 
L 319.181856 -155.302035 
L 321.257107 -157.55506 
L 323.332358 -159.820819 
L 325.407609 -162.094378 
L 327.48286 -164.370997 
L 329.55811 -166.646263 
L 331.633361 -168.916232 
L 333.708612 -171.177541 
L 335.783863 -173.427525 
L 337.859114 -175.664305 
L 339.934365 -177.886851 
L 342.009615 -180.095031 
L 344.084866 -182.28962 
L 346.160117 -184.472291 
L 348.235368 -186.645563 
L 350.310619 -188.812734 
L 352.38587 -190.977776 
L 354.46112 -193.14521 
L 356.536371 -195.319952 
L 358.611622 -197.507153 
L 360.686873 -199.712008 
L 362.762124 -201.939576 
L 364.837375 -204.194583 
L 366.912625 -206.481235 
L 368.987876 -208.803039 
L 371.063127 -211.162639 
L 373.138378 -213.561675 
L 375.213629 -216.000669 
L 377.28888 -218.478932 
L 379.36413 -220.994518 
L 381.439381 -223.544208 
L 383.514632 -226.12353 
L 385.589883 -228.726823 
L 387.665134 -231.347333 
L 389.740385 -233.977346 
L 391.815635 -236.608356 
L 393.890886 -239.231259 
L 395.966137 -241.836565 
L 398.041388 -244.414633 
L 400.116639 -246.955911 
L 402.19189 -249.451183 
L 404.26714 -251.891807 
L 406.342391 -254.269941 
L 408.417642 -256.578757 
L 410.492893 -258.812621 
L 412.568144 -260.967251 
L 414.643395 -263.039832 
L 416.718645 -265.0291 
L 418.793896 -266.935384 
L 420.869147 -268.760599 
L 422.944398 -270.508207 
L 425.019649 -272.183131 
L 427.0949 -273.791634 
L 429.170151 -275.34116 
L 431.245401 -276.840146 
L 433.320652 -278.29781 
L 435.395903 -279.723912 
L 437.471154 -281.128505 
L 439.546405 -282.521675 
L 441.621656 -283.913279 
L 443.696906 -285.312681 
L 445.772157 -286.728497 
L 447.847408 -288.168361 
L 449.922659 -289.638697 
L 451.99791 -291.144523 
L 454.073161 -292.68928 
L 456.148411 -294.274689 
L 458.223662 -295.900644 
L 460.298913 -297.565147 
L 462.374164 -299.26427 
L 464.449415 -300.992169 
L 466.524666 -302.741133 
L 468.599916 -304.501673 
L 470.675167 -306.262653 
L 472.750418 -308.011459 
L 474.825669 -309.734202 
L 476.90092 -311.415951 
L 478.976171 -313.040995 
L 481.051421 -314.593127 
L 483.126672 -316.05594 
L 485.201923 -317.413137 
L 487.277174 -318.648831 
L 489.352425 -319.747854 
L 491.427676 -320.696039 
L 493.502926 -321.480483 
L 495.578177 -322.089787 
L 497.653428 -322.514254 
L 499.728679 -322.74605 
L 501.80393 -322.779318 
L 503.879181 -322.610246 
L 505.954431 -322.23708 
L 508.029682 -321.660099 
L 510.104933 -320.881523 
L 512.180184 -319.905394 
L 514.255435 -318.737407 
L 516.330686 -317.384698 
L 518.405936 -315.855622 
L 520.481187 -314.159489 
L 522.556438 -312.3063 
L 524.631689 -310.306472 
L 526.70694 -308.170569 
L 528.782191 -305.909037 
L 530.857441 -303.531971 
L 532.932692 -301.048894 
L 535.007943 -298.468574 
L 537.083194 -295.798877 
L 539.158445 -293.046656 
L 541.233696 -290.217683 
L 543.308946 -287.316624 
L 545.384197 -284.347053 
L 547.459448 -281.311507 
L 549.534699 -278.211574 
L 551.60995 -275.048017 
L 553.685201 -271.820923 
L 555.760452 -268.529875 
L 557.835702 -265.174135 
L 559.910953 -261.752841 
L 561.986204 -258.265204 
L 564.061455 -254.710703 
L 566.136706 -251.089265 
L 568.211957 -247.401438 
L 570.287207 -243.648534 
L 572.362458 -239.832758 
L 574.437709 -235.957298 
L 576.51296 -232.026394 
L 578.588211 -228.045367 
L 580.663462 -224.020623 
L 582.738712 -219.959614 
L 584.813963 -215.87078 
L 586.889214 -211.763451 
L 588.964465 -207.647727 
L 591.039716 -203.534333 
L 593.114967 -199.434455 
L 595.190217 -195.359563 
L 597.265468 -191.321215 
L 599.340719 -187.330869 
L 601.41597 -183.399681 
L 603.491221 -179.538316 
L 605.566472 -175.756764 
L 607.641722 -172.064171 
L 609.716973 -168.468687 
L 611.792224 -164.977337 
L 613.867475 -161.595912 
L 615.942726 -158.328891 
L 618.017977 -155.179391 
L 620.093227 -152.149142 
L 622.168478 -149.2385 
L 624.243729 -146.446479 
L 626.31898 -143.770819 
L 628.394231 -141.208078 
L 630.469482 -138.753744 
L 632.544732 -136.402374 
L 634.619983 -134.147746 
L 636.695234 -131.983023 
L 638.770485 -129.900931 
L 640.845736 -127.893934 
L 642.920987 -125.954419 
L 644.996237 -124.074863 
L 647.071488 -122.248005 
L 649.146739 -120.467 
L 651.22199 -118.725549 
L 653.297241 -117.018024 
L 655.372492 -115.339562 
L 657.447742 -113.686134 
L 659.522993 -112.054599 
L 661.598244 -110.442723 
L 663.673495 -108.849177 
L 665.748746 -107.273513 
L 667.823997 -105.716116 
L 669.899247 -104.178137 
L 671.974498 -102.661406 
L 674.049749 -101.168339 
L 676.125 -99.701824 
L 676.125 -77.015682 
L 676.125 -77.015682 
L 674.049749 -77.015682 
L 671.974498 -77.015682 
L 669.899247 -77.015682 
L 667.823997 -77.015682 
L 665.748746 -77.015682 
L 663.673495 -77.015682 
L 661.598244 -77.015682 
L 659.522993 -77.015682 
L 657.447742 -77.015682 
L 655.372492 -77.015682 
L 653.297241 -77.015682 
L 651.22199 -77.015682 
L 649.146739 -77.015682 
L 647.071488 -77.015682 
L 644.996237 -77.015682 
L 642.920987 -77.015682 
L 640.845736 -77.015682 
L 638.770485 -77.015682 
L 636.695234 -77.015682 
L 634.619983 -77.015682 
L 632.544732 -77.015682 
L 630.469482 -77.015682 
L 628.394231 -77.015682 
L 626.31898 -77.015682 
L 624.243729 -77.015682 
L 622.168478 -77.015682 
L 620.093227 -77.015682 
L 618.017977 -77.015682 
L 615.942726 -77.015682 
L 613.867475 -77.015682 
L 611.792224 -77.015682 
L 609.716973 -77.015682 
L 607.641722 -77.015682 
L 605.566472 -77.015682 
L 603.491221 -77.015682 
L 601.41597 -77.015682 
L 599.340719 -77.015682 
L 597.265468 -77.015682 
L 595.190217 -77.015682 
L 593.114967 -77.015682 
L 591.039716 -77.015682 
L 588.964465 -77.015682 
L 586.889214 -77.015682 
L 584.813963 -77.015682 
L 582.738712 -77.015682 
L 580.663462 -77.015682 
L 578.588211 -77.015682 
L 576.51296 -77.015682 
L 574.437709 -77.015682 
L 572.362458 -77.015682 
L 570.287207 -77.015682 
L 568.211957 -77.015682 
L 566.136706 -77.015682 
L 564.061455 -77.015682 
L 561.986204 -77.015682 
L 559.910953 -77.015682 
L 557.835702 -77.015682 
L 555.760452 -77.015682 
L 553.685201 -77.015682 
L 551.60995 -77.015682 
L 549.534699 -77.015682 
L 547.459448 -77.015682 
L 545.384197 -77.015682 
L 543.308946 -77.015682 
L 541.233696 -77.015682 
L 539.158445 -77.015682 
L 537.083194 -77.015682 
L 535.007943 -77.015682 
L 532.932692 -77.015682 
L 530.857441 -77.015682 
L 528.782191 -77.015682 
L 526.70694 -77.015682 
L 524.631689 -77.015682 
L 522.556438 -77.015682 
L 520.481187 -77.015682 
L 518.405936 -77.015682 
L 516.330686 -77.015682 
L 514.255435 -77.015682 
L 512.180184 -77.015682 
L 510.104933 -77.015682 
L 508.029682 -77.015682 
L 505.954431 -77.015682 
L 503.879181 -77.015682 
L 501.80393 -77.015682 
L 499.728679 -77.015682 
L 497.653428 -77.015682 
L 495.578177 -77.015682 
L 493.502926 -77.015682 
L 491.427676 -77.015682 
L 489.352425 -77.015682 
L 487.277174 -77.015682 
L 485.201923 -77.015682 
L 483.126672 -77.015682 
L 481.051421 -77.015682 
L 478.976171 -77.015682 
L 476.90092 -77.015682 
L 474.825669 -77.015682 
L 472.750418 -77.015682 
L 470.675167 -77.015682 
L 468.599916 -77.015682 
L 466.524666 -77.015682 
L 464.449415 -77.015682 
L 462.374164 -77.015682 
L 460.298913 -77.015682 
L 458.223662 -77.015682 
L 456.148411 -77.015682 
L 454.073161 -77.015682 
L 451.99791 -77.015682 
L 449.922659 -77.015682 
L 447.847408 -77.015682 
L 445.772157 -77.015682 
L 443.696906 -77.015682 
L 441.621656 -77.015682 
L 439.546405 -77.015682 
L 437.471154 -77.015682 
L 435.395903 -77.015682 
L 433.320652 -77.015682 
L 431.245401 -77.015682 
L 429.170151 -77.015682 
L 427.0949 -77.015682 
L 425.019649 -77.015682 
L 422.944398 -77.015682 
L 420.869147 -77.015682 
L 418.793896 -77.015682 
L 416.718645 -77.015682 
L 414.643395 -77.015682 
L 412.568144 -77.015682 
L 410.492893 -77.015682 
L 408.417642 -77.015682 
L 406.342391 -77.015682 
L 404.26714 -77.015682 
L 402.19189 -77.015682 
L 400.116639 -77.015682 
L 398.041388 -77.015682 
L 395.966137 -77.015682 
L 393.890886 -77.015682 
L 391.815635 -77.015682 
L 389.740385 -77.015682 
L 387.665134 -77.015682 
L 385.589883 -77.015682 
L 383.514632 -77.015682 
L 381.439381 -77.015682 
L 379.36413 -77.015682 
L 377.28888 -77.015682 
L 375.213629 -77.015682 
L 373.138378 -77.015682 
L 371.063127 -77.015682 
L 368.987876 -77.015682 
L 366.912625 -77.015682 
L 364.837375 -77.015682 
L 362.762124 -77.015682 
L 360.686873 -77.015682 
L 358.611622 -77.015682 
L 356.536371 -77.015682 
L 354.46112 -77.015682 
L 352.38587 -77.015682 
L 350.310619 -77.015682 
L 348.235368 -77.015682 
L 346.160117 -77.015682 
L 344.084866 -77.015682 
L 342.009615 -77.015682 
L 339.934365 -77.015682 
L 337.859114 -77.015682 
L 335.783863 -77.015682 
L 333.708612 -77.015682 
L 331.633361 -77.015682 
L 329.55811 -77.015682 
L 327.48286 -77.015682 
L 325.407609 -77.015682 
L 323.332358 -77.015682 
L 321.257107 -77.015682 
L 319.181856 -77.015682 
L 317.106605 -77.015682 
L 315.031355 -77.015682 
L 312.956104 -77.015682 
L 310.880853 -77.015682 
L 308.805602 -77.015682 
L 306.730351 -77.015682 
L 304.6551 -77.015682 
L 302.579849 -77.015682 
L 300.504599 -77.015682 
L 298.429348 -77.015682 
L 296.354097 -77.015682 
L 294.278846 -77.015682 
L 292.203595 -77.015682 
L 290.128344 -77.015682 
L 288.053094 -77.015682 
L 285.977843 -77.015682 
L 283.902592 -77.015682 
L 281.827341 -77.015682 
L 279.75209 -77.015682 
L 277.676839 -77.015682 
L 275.601589 -77.015682 
L 273.526338 -77.015682 
L 271.451087 -77.015682 
L 269.375836 -77.015682 
L 267.300585 -77.015682 
L 265.225334 -77.015682 
L 263.150084 -77.015682 
L 261.074833 -77.015682 
L 258.999582 -77.015682 
L 256.924331 -77.015682 
L 254.84908 -77.015682 
L 252.773829 -77.015682 
L 250.698579 -77.015682 
L 248.623328 -77.015682 
L 246.548077 -77.015682 
L 244.472826 -77.015682 
L 242.397575 -77.015682 
L 240.322324 -77.015682 
L 238.247074 -77.015682 
L 236.171823 -77.015682 
L 234.096572 -77.015682 
L 232.021321 -77.015682 
L 229.94607 -77.015682 
L 227.870819 -77.015682 
L 225.795569 -77.015682 
L 223.720318 -77.015682 
L 221.645067 -77.015682 
L 219.569816 -77.015682 
L 217.494565 -77.015682 
L 215.419314 -77.015682 
L 213.344064 -77.015682 
L 211.268813 -77.015682 
L 209.193562 -77.015682 
L 207.118311 -77.015682 
L 205.04306 -77.015682 
L 202.967809 -77.015682 
L 200.892559 -77.015682 
L 198.817308 -77.015682 
L 196.742057 -77.015682 
L 194.666806 -77.015682 
L 192.591555 -77.015682 
L 190.516304 -77.015682 
L 188.441054 -77.015682 
L 186.365803 -77.015682 
L 184.290552 -77.015682 
L 182.215301 -77.015682 
L 180.14005 -77.015682 
L 178.064799 -77.015682 
L 175.989548 -77.015682 
L 173.914298 -77.015682 
L 171.839047 -77.015682 
L 169.763796 -77.015682 
L 167.688545 -77.015682 
L 165.613294 -77.015682 
L 163.538043 -77.015682 
L 161.462793 -77.015682 
L 159.387542 -77.015682 
L 157.312291 -77.015682 
L 155.23704 -77.015682 
L 153.161789 -77.015682 
L 151.086538 -77.015682 
L 149.011288 -77.015682 
L 146.936037 -77.015682 
L 144.860786 -77.015682 
L 142.785535 -77.015682 
L 140.710284 -77.015682 
L 138.635033 -77.015682 
L 136.559783 -77.015682 
L 134.484532 -77.015682 
L 132.409281 -77.015682 
L 130.33403 -77.015682 
L 128.258779 -77.015682 
L 126.183528 -77.015682 
L 124.108278 -77.015682 
L 122.033027 -77.015682 
L 119.957776 -77.015682 
L 117.882525 -77.015682 
L 115.807274 -77.015682 
L 113.732023 -77.015682 
L 111.656773 -77.015682 
L 109.581522 -77.015682 
L 107.506271 -77.015682 
L 105.43102 -77.015682 
L 103.355769 -77.015682 
L 101.280518 -77.015682 
L 99.205268 -77.015682 
L 97.130017 -77.015682 
L 95.054766 -77.015682 
L 92.979515 -77.015682 
L 90.904264 -77.015682 
L 88.829013 -77.015682 
L 86.753763 -77.015682 
L 84.678512 -77.015682 
L 82.603261 -77.015682 
L 80.52801 -77.015682 
L 78.452759 -77.015682 
L 76.377508 -77.015682 
L 74.302258 -77.015682 
L 72.227007 -77.015682 
L 70.151756 -77.015682 
L 68.076505 -77.015682 
L 66.001254 -77.015682 
L 63.926003 -77.015682 
L 61.850753 -77.015682 
L 59.775502 -77.015682 
L 57.700251 -77.015682 
L 55.625 -77.015682 
z
" style="stroke: #ffd700"/>
    </defs>
    <g clip-path="url(#p54f822c19c)">
     <use xlink:href="#m4aea67a35c" x="0" y="384.30375" style="fill: #ffd700; stroke: #ffd700"/>
    </g>
   </g>
   <g id="line2d_16">
    <path d="M 55.625 303.550409 
L 68.076505 302.984129 
L 101.280518 301.76017 
L 113.732023 300.925714 
L 132.409281 299.383792 
L 167.688545 296.305548 
L 194.666806 293.604309 
L 209.193562 292.034486 
L 217.494565 290.924063 
L 223.720318 289.876654 
L 229.94607 288.565599 
L 234.096572 287.512495 
L 238.247074 286.297814 
L 242.397575 284.910803 
L 246.548077 283.345739 
L 250.698579 281.601852 
L 254.84908 279.68261 
L 261.074833 276.48933 
L 267.300585 272.940864 
L 273.526338 269.054188 
L 279.75209 264.828324 
L 285.977843 260.242041 
L 292.203595 255.261581 
L 298.429348 249.85691 
L 304.6551 244.021503 
L 310.880853 237.78858 
L 317.106605 231.237016 
L 327.48286 219.932753 
L 339.934365 206.416899 
L 352.38587 193.325974 
L 362.762124 182.364174 
L 368.987876 175.500711 
L 375.213629 168.303081 
L 381.439381 160.759542 
L 391.815635 147.695394 
L 400.116639 137.347839 
L 406.342391 130.033809 
L 410.492893 125.491129 
L 414.643395 121.263918 
L 418.793896 117.368366 
L 422.944398 113.795543 
L 427.0949 110.512116 
L 431.245401 107.463604 
L 437.471154 103.175245 
L 447.847408 96.135389 
L 454.073161 91.61447 
L 460.298913 86.738603 
L 468.599916 79.802077 
L 476.90092 72.887799 
L 481.051421 69.710623 
L 485.201923 66.890613 
L 487.277174 65.654919 
L 489.352425 64.555896 
L 491.427676 63.607711 
L 493.502926 62.823267 
L 495.578177 62.213963 
L 497.653428 61.789496 
L 499.728679 61.5577 
L 501.80393 61.524432 
L 503.879181 61.693504 
L 505.954431 62.06667 
L 508.029682 62.643651 
L 510.104933 63.422227 
L 512.180184 64.398356 
L 514.255435 65.566343 
L 516.330686 66.919052 
L 518.405936 68.448128 
L 520.481187 70.144261 
L 524.631689 73.997278 
L 528.782191 78.394713 
L 532.932692 83.254856 
L 537.083194 88.504873 
L 541.233696 94.086067 
L 545.384197 99.956697 
L 551.60995 109.255733 
L 557.835702 119.129615 
L 564.061455 129.593047 
L 570.287207 140.655216 
L 576.51296 152.277356 
L 584.813963 168.43297 
L 599.340719 196.972881 
L 605.566472 208.546986 
L 609.716973 215.835063 
L 613.867475 222.707838 
L 618.017977 229.124359 
L 622.168478 235.06525 
L 626.31898 240.532931 
L 630.469482 245.550006 
L 634.619983 250.156004 
L 638.770485 254.402819 
L 642.920987 258.349331 
L 647.071488 262.055745 
L 653.297241 267.285726 
L 661.598244 273.861027 
L 669.899247 280.125613 
L 676.125 284.601926 
L 676.125 284.601926 
" clip-path="url(#p54f822c19c)" style="fill: none; stroke: #ffd700; stroke-width: 1.5; stroke-linecap: round"/>
   </g>
   <g id="line2d_17">
    <path d="M 574.34956 319.57625 
L 574.34956 49.23625 
" clip-path="url(#p54f822c19c)" style="fill: none; stroke-dasharray: 7.4,3.2; stroke-dashoffset: 0; stroke: #ffffff; stroke-width: 2"/>
   </g>
   <g id="patch_3">
    <path d="M 24.6 319.57625 
L 24.6 49.23625 
" style="fill: none"/>
   </g>
   <g id="patch_4">
    <path d="M 707.15 319.57625 
L 707.15 49.23625 
" style="fill: none"/>
   </g>
   <g id="patch_5">
    <path d="M 24.6 319.57625 
L 707.15 319.57625 
" style="fill: none"/>
   </g>
   <g id="patch_6">
    <path d="M 24.6 49.23625 
L 707.15 49.23625 
" style="fill: none"/>
   </g>
   <g id="text_17">
    <!-- This Property's Diversity  -->
    <g style="fill: #262626" transform="translate(255.615625 21.69375) scale(0.2 -0.2)">
     <defs>
      <path id="LiberationSans-68" d="M 991 2803 
Q 1084 2975 1193 3095 
Q 1303 3216 1434 3294 
Q 1566 3372 1722 3408 
Q 1878 3444 2072 3444 
Q 2397 3444 2605 3356 
Q 2813 3269 2933 3111 
Q 3053 2953 3098 2734 
Q 3144 2516 3144 2253 
L 3144 0 
L 2578 0 
L 2578 2144 
Q 2578 2359 2551 2521 
Q 2525 2684 2450 2792 
Q 2375 2900 2237 2954 
Q 2100 3009 1881 3009 
Q 1681 3009 1520 2937 
Q 1359 2866 1245 2734 
Q 1131 2603 1068 2415 
Q 1006 2228 1006 1994 
L 1006 0 
L 444 0 
L 444 4638 
L 1006 4638 
L 1006 3431 
Q 1006 3328 1003 3225 
Q 1000 3122 995 3034 
Q 991 2947 987 2886 
Q 984 2825 981 2803 
L 991 2803 
z
" transform="scale(0.015625)"/>
      <path id="LiberationSans-27" d="M 831 3019 
L 391 3019 
L 325 4403 
L 900 4403 
L 831 3019 
z
" transform="scale(0.015625)"/>
     </defs>
     <use xlink:href="#LiberationSans-54"/>
     <use xlink:href="#LiberationSans-68" x="61.083984"/>
     <use xlink:href="#LiberationSans-69" x="116.699219"/>
     <use xlink:href="#LiberationSans-73" x="138.916016"/>
     <use xlink:href="#LiberationSans-20" x="188.916016"/>
     <use xlink:href="#LiberationSans-50" x="216.699219"/>
     <use xlink:href="#LiberationSans-72" x="283.398438"/>
     <use xlink:href="#LiberationSans-6f" x="316.699219"/>
     <use xlink:href="#LiberationSans-70" x="372.314453"/>
     <use xlink:href="#LiberationSans-65" x="427.929688"/>
     <use xlink:href="#LiberationSans-72" x="483.544922"/>
     <use xlink:href="#LiberationSans-74" x="516.845703"/>
     <use xlink:href="#LiberationSans-79" x="544.628906"/>
     <use xlink:href="#LiberationSans-27" x="594.628906"/>
     <use xlink:href="#LiberationSans-73" x="613.720703"/>
     <use xlink:href="#LiberationSans-20" x="663.720703"/>
     <use xlink:href="#LiberationSans-44" x="691.503906"/>
     <use xlink:href="#LiberationSans-69" x="763.720703"/>
     <use xlink:href="#LiberationSans-76" x="785.9375"/>
     <use xlink:href="#LiberationSans-65" x="835.9375"/>
     <use xlink:href="#LiberationSans-72" x="891.552734"/>
     <use xlink:href="#LiberationSans-73" x="924.853516"/>
     <use xlink:href="#LiberationSans-69" x="974.853516"/>
     <use xlink:href="#LiberationSans-74" x="997.070312"/>
     <use xlink:href="#LiberationSans-79" x="1024.853516"/>
     <use xlink:href="#LiberationSans-20" x="1074.853516"/>
    </g>
    <!--  vs. Other Domestic Retail REIT Properties -->
    <g style="fill: #262626" transform="translate(176.004687 43.23625) scale(0.2 -0.2)">
     <defs>
      <path id="LiberationSans-4f" d="M 4672 2222 
Q 4672 1706 4523 1284 
Q 4375 863 4094 563 
Q 3813 263 3406 100 
Q 3000 -63 2484 -63 
Q 1941 -63 1531 107 
Q 1122 278 850 583 
Q 578 888 440 1306 
Q 303 1725 303 2222 
Q 303 2738 447 3153 
Q 591 3569 869 3861 
Q 1147 4153 1555 4311 
Q 1963 4469 2491 4469 
Q 3016 4469 3423 4309 
Q 3831 4150 4107 3856 
Q 4384 3563 4528 3147 
Q 4672 2731 4672 2222 
z
M 4063 2222 
Q 4063 2619 3961 2944 
Q 3859 3269 3661 3500 
Q 3463 3731 3169 3856 
Q 2875 3981 2491 3981 
Q 2097 3981 1800 3856 
Q 1503 3731 1304 3500 
Q 1106 3269 1007 2944 
Q 909 2619 909 2222 
Q 909 1825 1011 1495 
Q 1113 1166 1311 927 
Q 1509 688 1804 555 
Q 2100 422 2484 422 
Q 2897 422 3195 556 
Q 3494 691 3686 930 
Q 3878 1169 3970 1500 
Q 4063 1831 4063 2222 
z
" transform="scale(0.015625)"/>
      <path id="LiberationSans-63" d="M 859 1706 
Q 859 1416 901 1172 
Q 944 928 1044 751 
Q 1144 575 1308 478 
Q 1472 381 1713 381 
Q 2013 381 2214 543 
Q 2416 706 2463 1044 
L 3031 1006 
Q 3003 797 2909 603 
Q 2816 409 2655 262 
Q 2494 116 2262 26 
Q 2031 -63 1728 -63 
Q 1331 -63 1053 71 
Q 775 206 601 442 
Q 428 678 350 998 
Q 272 1319 272 1694 
Q 272 2034 328 2295 
Q 384 2556 486 2751 
Q 588 2947 725 3080 
Q 863 3213 1023 3292 
Q 1184 3372 1362 3408 
Q 1541 3444 1722 3444 
Q 2006 3444 2228 3366 
Q 2450 3288 2611 3152 
Q 2772 3016 2872 2831 
Q 2972 2647 3013 2434 
L 2434 2391 
Q 2391 2672 2212 2837 
Q 2034 3003 1706 3003 
Q 1466 3003 1305 2923 
Q 1144 2844 1044 2683 
Q 944 2522 901 2278 
Q 859 2034 859 1706 
z
" transform="scale(0.015625)"/>
     </defs>
     <use xlink:href="#LiberationSans-20"/>
     <use xlink:href="#LiberationSans-76" x="27.783203"/>
     <use xlink:href="#LiberationSans-73" x="77.783203"/>
     <use xlink:href="#LiberationSans-2e" x="127.783203"/>
     <use xlink:href="#LiberationSans-20" x="155.566406"/>
     <use xlink:href="#LiberationSans-4f" x="183.349609"/>
     <use xlink:href="#LiberationSans-74" x="261.132812"/>
     <use xlink:href="#LiberationSans-68" x="288.916016"/>
     <use xlink:href="#LiberationSans-65" x="344.53125"/>
     <use xlink:href="#LiberationSans-72" x="400.146484"/>
     <use xlink:href="#LiberationSans-20" x="433.447266"/>
     <use xlink:href="#LiberationSans-44" x="461.230469"/>
     <use xlink:href="#LiberationSans-6f" x="533.447266"/>
     <use xlink:href="#LiberationSans-6d" x="589.0625"/>
     <use xlink:href="#LiberationSans-65" x="672.363281"/>
     <use xlink:href="#LiberationSans-73" x="727.978516"/>
     <use xlink:href="#LiberationSans-74" x="777.978516"/>
     <use xlink:href="#LiberationSans-69" x="805.761719"/>
     <use xlink:href="#LiberationSans-63" x="827.978516"/>
     <use xlink:href="#LiberationSans-20" x="877.978516"/>
     <use xlink:href="#LiberationSans-52" x="905.761719"/>
     <use xlink:href="#LiberationSans-65" x="977.978516"/>
     <use xlink:href="#LiberationSans-74" x="1033.59375"/>
     <use xlink:href="#LiberationSans-61" x="1061.376953"/>
     <use xlink:href="#LiberationSans-69" x="1116.992188"/>
     <use xlink:href="#LiberationSans-6c" x="1139.208984"/>
     <use xlink:href="#LiberationSans-20" x="1161.425781"/>
     <use xlink:href="#LiberationSans-52" x="1189.208984"/>
     <use xlink:href="#LiberationSans-45" x="1261.425781"/>
     <use xlink:href="#LiberationSans-49" x="1328.125"/>
     <use xlink:href="#LiberationSans-54" x="1355.908203"/>
     <use xlink:href="#LiberationSans-20" x="1415.242188"/>
     <use xlink:href="#LiberationSans-50" x="1443.025391"/>
     <use xlink:href="#LiberationSans-72" x="1509.724609"/>
     <use xlink:href="#LiberationSans-6f" x="1543.025391"/>
     <use xlink:href="#LiberationSans-70" x="1598.640625"/>
     <use xlink:href="#LiberationSans-65" x="1654.255859"/>
     <use xlink:href="#LiberationSans-72" x="1709.871094"/>
     <use xlink:href="#LiberationSans-74" x="1743.171875"/>
     <use xlink:href="#LiberationSans-69" x="1770.955078"/>
     <use xlink:href="#LiberationSans-65" x="1793.171875"/>
     <use xlink:href="#LiberationSans-73" x="1848.787109"/>
    </g>
   </g>
   <g id="legend_1">
    <g id="line2d_18">
     <path d="M 33.6 61.983125 
L 43.6 61.983125 
L 53.6 61.983125 
" style="fill: none; stroke: #ffd700; stroke-width: 1.5; stroke-linecap: round"/>
    </g>
    <g id="text_18">
     <!-- Distribution of Diversity Across Retail REITs Nationwide -->
     <g style="fill: #262626" transform="translate(61.6 65.483125) scale(0.1 -0.1)">
      <defs>
       <path id="LiberationSans-62" d="M 3291 1706 
Q 3291 -63 2047 -63 
Q 1663 -63 1408 76 
Q 1153 216 994 525 
L 988 525 
Q 988 444 983 356 
Q 978 269 973 194 
Q 969 119 964 66 
Q 959 13 956 0 
L 413 0 
Q 416 28 419 95 
Q 422 163 425 256 
Q 428 350 429 462 
Q 431 575 431 697 
L 431 4638 
L 994 4638 
L 994 3316 
Q 994 3222 992 3136 
Q 991 3050 988 2984 
Q 984 2906 981 2838 
L 994 2838 
Q 1150 3163 1408 3303 
Q 1666 3444 2047 3444 
Q 2688 3444 2989 3012 
Q 3291 2581 3291 1706 
z
M 2700 1688 
Q 2700 2038 2656 2288 
Q 2613 2538 2516 2698 
Q 2419 2859 2269 2934 
Q 2119 3009 1903 3009 
Q 1681 3009 1511 2937 
Q 1341 2866 1227 2706 
Q 1113 2547 1053 2287 
Q 994 2028 994 1653 
Q 994 1291 1053 1044 
Q 1113 797 1227 642 
Q 1341 488 1509 420 
Q 1678 353 1897 353 
Q 2103 353 2253 425 
Q 2403 497 2503 656 
Q 2603 816 2651 1070 
Q 2700 1325 2700 1688 
z
" transform="scale(0.015625)"/>
       <path id="LiberationSans-75" d="M 981 3381 
L 981 1238 
Q 981 991 1017 825 
Q 1053 659 1134 557 
Q 1216 456 1348 414 
Q 1481 372 1678 372 
Q 1878 372 2039 442 
Q 2200 513 2314 645 
Q 2428 778 2490 973 
Q 2553 1169 2553 1422 
L 2553 3381 
L 3116 3381 
L 3116 722 
Q 3116 616 3117 498 
Q 3119 381 3122 276 
Q 3125 172 3128 97 
Q 3131 22 3134 0 
L 2603 0 
Q 2600 16 2597 84 
Q 2594 153 2589 242 
Q 2584 331 2581 423 
Q 2578 516 2578 578 
L 2569 578 
Q 2488 431 2391 312 
Q 2294 194 2166 111 
Q 2038 28 1872 -17 
Q 1706 -63 1488 -63 
Q 1206 -63 1003 6 
Q 800 75 669 219 
Q 538 363 477 588 
Q 416 813 416 1128 
L 416 3381 
L 981 3381 
z
" transform="scale(0.015625)"/>
       <path id="LiberationSans-77" d="M 3669 0 
L 3016 0 
L 2475 2181 
Q 2450 2266 2423 2391 
Q 2397 2516 2372 2634 
Q 2341 2772 2313 2919 
Q 2284 2778 2253 2641 
Q 2228 2522 2198 2394 
Q 2169 2266 2144 2169 
L 1588 0 
L 938 0 
L -9 3381 
L 547 3381 
L 1119 1084 
Q 1141 1013 1162 908 
Q 1184 803 1206 703 
Q 1228 588 1253 466 
Q 1278 584 1306 697 
Q 1331 794 1356 894 
Q 1381 994 1400 1059 
L 2013 3381 
L 2616 3381 
L 3206 1059 
Q 3228 978 3253 875 
Q 3278 772 3300 681 
Q 3325 575 3350 466 
Q 3375 584 3400 697 
Q 3422 794 3445 898 
Q 3469 1003 3491 1084 
L 4088 3381 
L 4638 3381 
L 3669 0 
z
" transform="scale(0.015625)"/>
       <path id="LiberationSans-64" d="M 2566 544 
Q 2409 219 2151 78 
Q 1894 -63 1513 -63 
Q 872 -63 570 368 
Q 269 800 269 1675 
Q 269 3444 1513 3444 
Q 1897 3444 2153 3303 
Q 2409 3163 2566 2856 
L 2572 2856 
Q 2572 2888 2570 2955 
Q 2569 3022 2567 3095 
Q 2566 3169 2566 3234 
Q 2566 3300 2566 3328 
L 2566 4638 
L 3128 4638 
L 3128 697 
Q 3128 575 3129 462 
Q 3131 350 3134 256 
Q 3138 163 3141 95 
Q 3144 28 3147 0 
L 2609 0 
Q 2603 31 2598 89 
Q 2594 147 2589 222 
Q 2584 297 2581 380 
Q 2578 463 2578 544 
L 2566 544 
z
M 859 1694 
Q 859 1344 903 1094 
Q 947 844 1044 683 
Q 1141 522 1291 447 
Q 1441 372 1656 372 
Q 1878 372 2048 444 
Q 2219 516 2333 677 
Q 2447 838 2506 1097 
Q 2566 1356 2566 1731 
Q 2566 2091 2506 2339 
Q 2447 2588 2331 2741 
Q 2216 2894 2048 2961 
Q 1881 3028 1663 3028 
Q 1456 3028 1306 2956 
Q 1156 2884 1056 2725 
Q 956 2566 907 2311 
Q 859 2056 859 1694 
z
" transform="scale(0.015625)"/>
      </defs>
      <use xlink:href="#LiberationSans-44"/>
      <use xlink:href="#LiberationSans-69" x="72.216797"/>
      <use xlink:href="#LiberationSans-73" x="94.433594"/>
      <use xlink:href="#LiberationSans-74" x="144.433594"/>
      <use xlink:href="#LiberationSans-72" x="172.216797"/>
      <use xlink:href="#LiberationSans-69" x="205.517578"/>
      <use xlink:href="#LiberationSans-62" x="227.734375"/>
      <use xlink:href="#LiberationSans-75" x="283.349609"/>
      <use xlink:href="#LiberationSans-74" x="338.964844"/>
      <use xlink:href="#LiberationSans-69" x="366.748047"/>
      <use xlink:href="#LiberationSans-6f" x="388.964844"/>
      <use xlink:href="#LiberationSans-6e" x="444.580078"/>
      <use xlink:href="#LiberationSans-20" x="500.195312"/>
      <use xlink:href="#LiberationSans-6f" x="527.978516"/>
      <use xlink:href="#LiberationSans-66" x="583.59375"/>
      <use xlink:href="#LiberationSans-20" x="611.376953"/>
      <use xlink:href="#LiberationSans-44" x="639.160156"/>
      <use xlink:href="#LiberationSans-69" x="711.376953"/>
      <use xlink:href="#LiberationSans-76" x="733.59375"/>
      <use xlink:href="#LiberationSans-65" x="783.59375"/>
      <use xlink:href="#LiberationSans-72" x="839.208984"/>
      <use xlink:href="#LiberationSans-73" x="872.509766"/>
      <use xlink:href="#LiberationSans-69" x="922.509766"/>
      <use xlink:href="#LiberationSans-74" x="944.726562"/>
      <use xlink:href="#LiberationSans-79" x="972.509766"/>
      <use xlink:href="#LiberationSans-20" x="1022.509766"/>
      <use xlink:href="#LiberationSans-41" x="1044.792969"/>
      <use xlink:href="#LiberationSans-63" x="1111.492188"/>
      <use xlink:href="#LiberationSans-72" x="1161.492188"/>
      <use xlink:href="#LiberationSans-6f" x="1194.792969"/>
      <use xlink:href="#LiberationSans-73" x="1250.408203"/>
      <use xlink:href="#LiberationSans-73" x="1300.408203"/>
      <use xlink:href="#LiberationSans-20" x="1350.408203"/>
      <use xlink:href="#LiberationSans-52" x="1378.191406"/>
      <use xlink:href="#LiberationSans-65" x="1450.408203"/>
      <use xlink:href="#LiberationSans-74" x="1506.023438"/>
      <use xlink:href="#LiberationSans-61" x="1533.806641"/>
      <use xlink:href="#LiberationSans-69" x="1589.421875"/>
      <use xlink:href="#LiberationSans-6c" x="1611.638672"/>
      <use xlink:href="#LiberationSans-20" x="1633.855469"/>
      <use xlink:href="#LiberationSans-52" x="1661.638672"/>
      <use xlink:href="#LiberationSans-45" x="1733.855469"/>
      <use xlink:href="#LiberationSans-49" x="1800.554688"/>
      <use xlink:href="#LiberationSans-54" x="1828.337891"/>
      <use xlink:href="#LiberationSans-73" x="1878.296875"/>
      <use xlink:href="#LiberationSans-20" x="1928.296875"/>
      <use xlink:href="#LiberationSans-4e" x="1956.080078"/>
      <use xlink:href="#LiberationSans-61" x="2028.296875"/>
      <use xlink:href="#LiberationSans-74" x="2083.912109"/>
      <use xlink:href="#LiberationSans-69" x="2111.695312"/>
      <use xlink:href="#LiberationSans-6f" x="2133.912109"/>
      <use xlink:href="#LiberationSans-6e" x="2189.527344"/>
      <use xlink:href="#LiberationSans-77" x="2245.142578"/>
      <use xlink:href="#LiberationSans-69" x="2317.359375"/>
      <use xlink:href="#LiberationSans-64" x="2339.576172"/>
      <use xlink:href="#LiberationSans-65" x="2395.191406"/>
     </g>
    </g>
    <g id="line2d_19">
     <path d="M 33.6 76.305 
L 43.6 76.305 
L 53.6 76.305 
" style="fill: none; stroke-dasharray: 7.4,3.2; stroke-dashoffset: 0; stroke: #ffffff; stroke-width: 2"/>
    </g>
    <g id="text_19">
     <!-- This Property's Diversity -->
     <g style="fill: #262626" transform="translate(61.6 79.805) scale(0.1 -0.1)">
      <use xlink:href="#LiberationSans-54"/>
      <use xlink:href="#LiberationSans-68" x="61.083984"/>
      <use xlink:href="#LiberationSans-69" x="116.699219"/>
      <use xlink:href="#LiberationSans-73" x="138.916016"/>
      <use xlink:href="#LiberationSans-20" x="188.916016"/>
      <use xlink:href="#LiberationSans-50" x="216.699219"/>
      <use xlink:href="#LiberationSans-72" x="283.398438"/>
      <use xlink:href="#LiberationSans-6f" x="316.699219"/>
      <use xlink:href="#LiberationSans-70" x="372.314453"/>
      <use xlink:href="#LiberationSans-65" x="427.929688"/>
      <use xlink:href="#LiberationSans-72" x="483.544922"/>
      <use xlink:href="#LiberationSans-74" x="516.845703"/>
      <use xlink:href="#LiberationSans-79" x="544.628906"/>
      <use xlink:href="#LiberationSans-27" x="594.628906"/>
      <use xlink:href="#LiberationSans-73" x="613.720703"/>
      <use xlink:href="#LiberationSans-20" x="663.720703"/>
      <use xlink:href="#LiberationSans-44" x="691.503906"/>
      <use xlink:href="#LiberationSans-69" x="763.720703"/>
      <use xlink:href="#LiberationSans-76" x="785.9375"/>
      <use xlink:href="#LiberationSans-65" x="835.9375"/>
      <use xlink:href="#LiberationSans-72" x="891.552734"/>
      <use xlink:href="#LiberationSans-73" x="924.853516"/>
      <use xlink:href="#LiberationSans-69" x="974.853516"/>
      <use xlink:href="#LiberationSans-74" x="997.070312"/>
      <use xlink:href="#LiberationSans-79" x="1024.853516"/>
     </g>
    </g>
   </g>
  </g>
  <g id="text_20">
   <!-- This graph shows how diverse most US Retail REIT properties are. Your property is highlighted by the vertical line. The peak represents the average Diversity. -->
   <g style="fill: #ffffff" transform="translate(42.753281 375.23625) scale(0.09 -0.09)">
    <defs>
     <path id="LiberationSans-55" d="M 2284 -63 
Q 1922 -63 1597 34 
Q 1272 131 1026 336 
Q 781 541 637 855 
Q 494 1169 494 1600 
L 494 4403 
L 1091 4403 
L 1091 1650 
Q 1091 1316 1180 1083 
Q 1269 850 1428 703 
Q 1588 556 1805 489 
Q 2022 422 2281 422 
Q 2538 422 2766 490 
Q 2994 559 3166 709 
Q 3338 859 3436 1101 
Q 3534 1344 3534 1691 
L 3534 4403 
L 4128 4403 
L 4128 1656 
Q 4128 1216 3983 892 
Q 3838 569 3588 356 
Q 3338 144 3002 40 
Q 2666 -63 2284 -63 
z
" transform="scale(0.015625)"/>
     <path id="LiberationSans-53" d="M 3975 1216 
Q 3975 938 3867 703 
Q 3759 469 3534 298 
Q 3309 128 2967 32 
Q 2625 -63 2156 -63 
Q 1334 -63 875 225 
Q 416 513 291 1056 
L 869 1172 
Q 913 1000 1003 859 
Q 1094 719 1248 617 
Q 1403 516 1631 459 
Q 1859 403 2178 403 
Q 2444 403 2666 448 
Q 2888 494 3047 587 
Q 3206 681 3295 829 
Q 3384 978 3384 1184 
Q 3384 1400 3286 1534 
Q 3188 1669 3009 1756 
Q 2831 1844 2584 1903 
Q 2338 1963 2038 2031 
Q 1853 2072 1667 2120 
Q 1481 2169 1311 2236 
Q 1141 2303 991 2393 
Q 841 2484 731 2611 
Q 622 2738 559 2905 
Q 497 3072 497 3291 
Q 497 3603 623 3826 
Q 750 4050 975 4194 
Q 1200 4338 1506 4403 
Q 1813 4469 2169 4469 
Q 2578 4469 2868 4405 
Q 3159 4341 3359 4212 
Q 3559 4084 3679 3895 
Q 3800 3706 3872 3456 
L 3284 3353 
Q 3241 3513 3158 3638 
Q 3075 3763 2940 3847 
Q 2806 3931 2614 3975 
Q 2422 4019 2163 4019 
Q 1856 4019 1648 3964 
Q 1441 3909 1314 3815 
Q 1188 3722 1133 3595 
Q 1078 3469 1078 3322 
Q 1078 3125 1176 2998 
Q 1275 2872 1444 2787 
Q 1613 2703 1834 2647 
Q 2056 2591 2306 2534 
Q 2509 2488 2711 2439 
Q 2913 2391 3097 2323 
Q 3281 2256 3442 2165 
Q 3603 2075 3722 1944 
Q 3841 1813 3908 1634 
Q 3975 1456 3975 1216 
z
" transform="scale(0.015625)"/>
     <path id="LiberationSans-59" d="M 2428 1825 
L 2428 0 
L 1834 0 
L 1834 1825 
L 141 4403 
L 797 4403 
L 2138 2306 
L 3472 4403 
L 4128 4403 
L 2428 1825 
z
" transform="scale(0.015625)"/>
     <path id="LiberationSans-6b" d="M 2550 0 
L 1406 1544 
L 994 1203 
L 994 0 
L 431 0 
L 431 4638 
L 994 4638 
L 994 1741 
L 2478 3381 
L 3138 3381 
L 1766 1928 
L 3209 0 
L 2550 0 
z
" transform="scale(0.015625)"/>
    </defs>
    <use xlink:href="#LiberationSans-54"/>
    <use xlink:href="#LiberationSans-68" x="61.083984"/>
    <use xlink:href="#LiberationSans-69" x="116.699219"/>
    <use xlink:href="#LiberationSans-73" x="138.916016"/>
    <use xlink:href="#LiberationSans-20" x="188.916016"/>
    <use xlink:href="#LiberationSans-67" x="216.699219"/>
    <use xlink:href="#LiberationSans-72" x="272.314453"/>
    <use xlink:href="#LiberationSans-61" x="305.615234"/>
    <use xlink:href="#LiberationSans-70" x="361.230469"/>
    <use xlink:href="#LiberationSans-68" x="416.845703"/>
    <use xlink:href="#LiberationSans-20" x="472.460938"/>
    <use xlink:href="#LiberationSans-73" x="500.244141"/>
    <use xlink:href="#LiberationSans-68" x="550.244141"/>
    <use xlink:href="#LiberationSans-6f" x="605.859375"/>
    <use xlink:href="#LiberationSans-77" x="661.474609"/>
    <use xlink:href="#LiberationSans-73" x="733.691406"/>
    <use xlink:href="#LiberationSans-20" x="783.691406"/>
    <use xlink:href="#LiberationSans-68" x="811.474609"/>
    <use xlink:href="#LiberationSans-6f" x="867.089844"/>
    <use xlink:href="#LiberationSans-77" x="922.705078"/>
    <use xlink:href="#LiberationSans-20" x="994.921875"/>
    <use xlink:href="#LiberationSans-64" x="1022.705078"/>
    <use xlink:href="#LiberationSans-69" x="1078.320312"/>
    <use xlink:href="#LiberationSans-76" x="1100.537109"/>
    <use xlink:href="#LiberationSans-65" x="1150.537109"/>
    <use xlink:href="#LiberationSans-72" x="1206.152344"/>
    <use xlink:href="#LiberationSans-73" x="1239.453125"/>
    <use xlink:href="#LiberationSans-65" x="1289.453125"/>
    <use xlink:href="#LiberationSans-20" x="1345.068359"/>
    <use xlink:href="#LiberationSans-6d" x="1372.851562"/>
    <use xlink:href="#LiberationSans-6f" x="1456.152344"/>
    <use xlink:href="#LiberationSans-73" x="1511.767578"/>
    <use xlink:href="#LiberationSans-74" x="1561.767578"/>
    <use xlink:href="#LiberationSans-20" x="1589.550781"/>
    <use xlink:href="#LiberationSans-55" x="1617.333984"/>
    <use xlink:href="#LiberationSans-53" x="1689.550781"/>
    <use xlink:href="#LiberationSans-20" x="1756.25"/>
    <use xlink:href="#LiberationSans-52" x="1784.033203"/>
    <use xlink:href="#LiberationSans-65" x="1856.25"/>
    <use xlink:href="#LiberationSans-74" x="1911.865234"/>
    <use xlink:href="#LiberationSans-61" x="1939.648438"/>
    <use xlink:href="#LiberationSans-69" x="1995.263672"/>
    <use xlink:href="#LiberationSans-6c" x="2017.480469"/>
    <use xlink:href="#LiberationSans-20" x="2039.697266"/>
    <use xlink:href="#LiberationSans-52" x="2067.480469"/>
    <use xlink:href="#LiberationSans-45" x="2139.697266"/>
    <use xlink:href="#LiberationSans-49" x="2206.396484"/>
    <use xlink:href="#LiberationSans-54" x="2234.179688"/>
    <use xlink:href="#LiberationSans-20" x="2293.513672"/>
    <use xlink:href="#LiberationSans-70" x="2321.296875"/>
    <use xlink:href="#LiberationSans-72" x="2376.912109"/>
    <use xlink:href="#LiberationSans-6f" x="2410.212891"/>
    <use xlink:href="#LiberationSans-70" x="2465.828125"/>
    <use xlink:href="#LiberationSans-65" x="2521.443359"/>
    <use xlink:href="#LiberationSans-72" x="2577.058594"/>
    <use xlink:href="#LiberationSans-74" x="2610.359375"/>
    <use xlink:href="#LiberationSans-69" x="2638.142578"/>
    <use xlink:href="#LiberationSans-65" x="2660.359375"/>
    <use xlink:href="#LiberationSans-73" x="2715.974609"/>
    <use xlink:href="#LiberationSans-20" x="2765.974609"/>
    <use xlink:href="#LiberationSans-61" x="2793.757812"/>
    <use xlink:href="#LiberationSans-72" x="2849.373047"/>
    <use xlink:href="#LiberationSans-65" x="2882.673828"/>
    <use xlink:href="#LiberationSans-2e" x="2938.289062"/>
    <use xlink:href="#LiberationSans-20" x="2966.072266"/>
    <use xlink:href="#LiberationSans-59" x="2992.105469"/>
    <use xlink:href="#LiberationSans-6f" x="3049.679688"/>
    <use xlink:href="#LiberationSans-75" x="3105.294922"/>
    <use xlink:href="#LiberationSans-72" x="3160.910156"/>
    <use xlink:href="#LiberationSans-20" x="3194.210938"/>
    <use xlink:href="#LiberationSans-70" x="3221.994141"/>
    <use xlink:href="#LiberationSans-72" x="3277.609375"/>
    <use xlink:href="#LiberationSans-6f" x="3310.910156"/>
    <use xlink:href="#LiberationSans-70" x="3366.525391"/>
    <use xlink:href="#LiberationSans-65" x="3422.140625"/>
    <use xlink:href="#LiberationSans-72" x="3477.755859"/>
    <use xlink:href="#LiberationSans-74" x="3511.056641"/>
    <use xlink:href="#LiberationSans-79" x="3538.839844"/>
    <use xlink:href="#LiberationSans-20" x="3588.839844"/>
    <use xlink:href="#LiberationSans-69" x="3616.623047"/>
    <use xlink:href="#LiberationSans-73" x="3638.839844"/>
    <use xlink:href="#LiberationSans-20" x="3688.839844"/>
    <use xlink:href="#LiberationSans-68" x="3716.623047"/>
    <use xlink:href="#LiberationSans-69" x="3772.238281"/>
    <use xlink:href="#LiberationSans-67" x="3794.455078"/>
    <use xlink:href="#LiberationSans-68" x="3850.070312"/>
    <use xlink:href="#LiberationSans-6c" x="3905.685547"/>
    <use xlink:href="#LiberationSans-69" x="3927.902344"/>
    <use xlink:href="#LiberationSans-67" x="3950.119141"/>
    <use xlink:href="#LiberationSans-68" x="4005.734375"/>
    <use xlink:href="#LiberationSans-74" x="4061.349609"/>
    <use xlink:href="#LiberationSans-65" x="4089.132812"/>
    <use xlink:href="#LiberationSans-64" x="4144.748047"/>
    <use xlink:href="#LiberationSans-20" x="4200.363281"/>
    <use xlink:href="#LiberationSans-62" x="4228.146484"/>
    <use xlink:href="#LiberationSans-79" x="4283.761719"/>
    <use xlink:href="#LiberationSans-20" x="4333.761719"/>
    <use xlink:href="#LiberationSans-74" x="4361.544922"/>
    <use xlink:href="#LiberationSans-68" x="4389.328125"/>
    <use xlink:href="#LiberationSans-65" x="4444.943359"/>
    <use xlink:href="#LiberationSans-20" x="4500.558594"/>
    <use xlink:href="#LiberationSans-76" x="4528.341797"/>
    <use xlink:href="#LiberationSans-65" x="4578.341797"/>
    <use xlink:href="#LiberationSans-72" x="4633.957031"/>
    <use xlink:href="#LiberationSans-74" x="4667.257812"/>
    <use xlink:href="#LiberationSans-69" x="4695.041016"/>
    <use xlink:href="#LiberationSans-63" x="4717.257812"/>
    <use xlink:href="#LiberationSans-61" x="4767.257812"/>
    <use xlink:href="#LiberationSans-6c" x="4822.873047"/>
    <use xlink:href="#LiberationSans-20" x="4845.089844"/>
    <use xlink:href="#LiberationSans-6c" x="4872.873047"/>
    <use xlink:href="#LiberationSans-69" x="4895.089844"/>
    <use xlink:href="#LiberationSans-6e" x="4917.306641"/>
    <use xlink:href="#LiberationSans-65" x="4972.921875"/>
    <use xlink:href="#LiberationSans-2e" x="5028.537109"/>
    <use xlink:href="#LiberationSans-20" x="5056.320312"/>
    <use xlink:href="#LiberationSans-54" x="5082.353516"/>
    <use xlink:href="#LiberationSans-68" x="5143.4375"/>
    <use xlink:href="#LiberationSans-65" x="5199.052734"/>
    <use xlink:href="#LiberationSans-20" x="5254.667969"/>
    <use xlink:href="#LiberationSans-70" x="5282.451172"/>
    <use xlink:href="#LiberationSans-65" x="5338.066406"/>
    <use xlink:href="#LiberationSans-61" x="5393.681641"/>
    <use xlink:href="#LiberationSans-6b" x="5449.296875"/>
    <use xlink:href="#LiberationSans-20" x="5499.296875"/>
    <use xlink:href="#LiberationSans-72" x="5527.080078"/>
    <use xlink:href="#LiberationSans-65" x="5560.380859"/>
    <use xlink:href="#LiberationSans-70" x="5615.996094"/>
    <use xlink:href="#LiberationSans-72" x="5671.611328"/>
    <use xlink:href="#LiberationSans-65" x="5704.912109"/>
    <use xlink:href="#LiberationSans-73" x="5760.527344"/>
    <use xlink:href="#LiberationSans-65" x="5810.527344"/>
    <use xlink:href="#LiberationSans-6e" x="5866.142578"/>
    <use xlink:href="#LiberationSans-74" x="5921.757812"/>
    <use xlink:href="#LiberationSans-73" x="5949.541016"/>
    <use xlink:href="#LiberationSans-20" x="5999.541016"/>
    <use xlink:href="#LiberationSans-74" x="6027.324219"/>
    <use xlink:href="#LiberationSans-68" x="6055.107422"/>
    <use xlink:href="#LiberationSans-65" x="6110.722656"/>
    <use xlink:href="#LiberationSans-20" x="6166.337891"/>
    <use xlink:href="#LiberationSans-61" x="6194.121094"/>
    <use xlink:href="#LiberationSans-76" x="6249.736328"/>
    <use xlink:href="#LiberationSans-65" x="6299.736328"/>
    <use xlink:href="#LiberationSans-72" x="6355.351562"/>
    <use xlink:href="#LiberationSans-61" x="6388.652344"/>
    <use xlink:href="#LiberationSans-67" x="6444.267578"/>
    <use xlink:href="#LiberationSans-65" x="6499.882812"/>
    <use xlink:href="#LiberationSans-20" x="6555.498047"/>
    <use xlink:href="#LiberationSans-44" x="6583.28125"/>
    <use xlink:href="#LiberationSans-69" x="6655.498047"/>
    <use xlink:href="#LiberationSans-76" x="6677.714844"/>
    <use xlink:href="#LiberationSans-65" x="6727.714844"/>
    <use xlink:href="#LiberationSans-72" x="6783.330078"/>
    <use xlink:href="#LiberationSans-73" x="6816.630859"/>
    <use xlink:href="#LiberationSans-69" x="6866.630859"/>
    <use xlink:href="#LiberationSans-74" x="6888.847656"/>
    <use xlink:href="#LiberationSans-79" x="6916.630859"/>
    <use xlink:href="#LiberationSans-2e" x="6959.255859"/>
   </g>
  </g>
 </g>
 <defs>
  <clipPath id="p54f822c19c">
   <rect x="24.6" y="49.23625" width="682.55" height="270.34"/>
  </clipPath>
 </defs>
</svg>
